<?xml version="1.0" encoding="UTF-8"?>
<svg xmlns="http://www.w3.org/2000/svg" version="1.1" viewBox="0 0 701.3 251.8">
  <defs>
    <style>
      .cls-1 {
        isolation: isolate;
      }

      .cls-2 {
        fill: #292f48;
      }
    </style>
  </defs>
  <!-- Generator: Adobe Illustrator 28.6.0, SVG Export Plug-In . SVG Version: 1.2.0 Build 709)  -->
  <g>
    <g id="Layer_1">
      <g id="Dr._Minnie" class="cls-1">
        <g class="cls-1">
          <g class="cls-1">
            <path class="cls-2" d="M132.2,47.5c0,0,.3,0,.6-.3.3-.2.5-.3.7-.3.3,0,.7.1,1.1.4.5.3.9.4,1.1.4h.6c0-.1,2.3-.1,2.3-.1,0,0,.2,0,.4.2.2.1.3.2.4.2.3,0,.6,0,1-.1.4,0,.7-.1.9-.1.3,0,.9.1,1.9.1h.7c.6,0,1.5.2,2.7.6,1.2.4,2.2.6,2.9.6s.2,0,.4,0c.2,0,.3,0,.4,0s.4.1,1,.4c.5,0,1,.1,1.7.1s.4,0,.6,0c.2,0,.3,0,.4,0,.3,0,.5.2.7.6.2.4.4.6.6.6s.2,0,.4-.1c.2,0,.3-.1.4-.1.2,0,.5,0,.8.2.3.1.6.2.9.2s.2,0,.4,0c.2,0,.3,0,.4,0,.8,0,1.9.3,3.3.9,1.4.6,2.5.9,3.1.9h1.1c.2,0,.7.3,1.5,1,.8.7,1.5,1,2.1,1l2.1,1.7c3.4,2.2,5.4,3.7,6,4.4.5.8,1.3,1.8,2.4,3.1,1.1,1.3,2,2.3,2.4,2.9,0,.3.6,1.1,1.5,2.5.9,1.4,1.7,2.7,2.4,3.9.7,1.2,1.1,1.9,1.1,2.2s0,.2,0,.4c0,.2,0,.3,0,.4,0,.5.2,1.1.7,1.9.5.8.7,1.3.7,1.7v.9c0,.3,0,.7.3,1.4.2.6.3,1,.3,1.2s0,.3,0,.5c0,.2,0,.5,0,.6,0,.3.1.7.4,1.4.3.6.4,1.1.4,1.5s0,.8-.3,1.6c-.2.8-.3,1.3-.3,1.6s0,.9.2,1.4c.1.6.2,1,.2,1.3s0,.6-.2.9c-.1.3-.2.6-.2.8v1.9c0,.2-.2.4-.5.6-.3.2-.5.4-.5.6,0,.3.1.6.4.9.2.3.4.6.4.8v.3c-.1,0-.9.9-.9.9-.2.2-.6,1.8-1.2,4.8-.6,3-1.1,4.6-1.5,4.9,0,0-.3,0-.5-.2-.2-.1-.4-.2-.5-.2-.2,0-.3,0-.3.3s.1.4.4.6c.2.2.4.3.4.4,0,1.2-.6,2.6-1.8,4.2-1.2,1.6-1.8,2.7-1.9,3.5,0,.7-.5,1.7-1.3,3.1-.8,1.4-1.6,2.9-2.6,4.4-1,1.5-2,2.9-3,4.3-1,1.4-1.8,2.5-2.5,3.5l-1,1.4c0,0,0,.2,0,.4,0,.1,0,.3,0,.4-.9.2-1.6.8-2.2,1.7-.6,1-1,1.5-1.2,1.7-.6,1.2-1.3,2.2-2.1,2.9-.4.2-.7.6-1,1.1s-.6.9-1,1l-2,2c-.3.4-1.5,1.7-3.6,4-2.1,2.3-3.4,3.6-3.8,3.9-2.1,1.5-3.5,2.7-4.1,3.4-.5.2-1,.5-1.6.9-.6.4-1.2.9-1.9,1.4-.7.5-1.1.9-1.4,1.1-2.5,2.3-7.8,5.8-16,10.4-.2,0-2.1,1-5.8,2.6-3.7,1.7-6.3,3.1-7.9,4.4-.3,0-.7.1-1.1.4h-1c0,0-.5.2-1.3.7-.8.5-1.2.8-1.3.9-1.4.8-4.3,1.8-8.5,3.2-4.2,1.4-7,2.1-8.4,2.1-.4,0-1.6.5-3.6,1.4-2,.8-3.4,1.2-4.3,1.2h-1.1c-.2,0-.4,0-.7.1-.3,0-.6.2-.9.4-.3.2-.6.3-.8.4-.7,0-1.3.2-2,.4-.7.1-1.4.3-2.1.5-.8.2-1.4.3-1.9.4h-.4c-.8,0-1.9.2-3.4.6-1.5.4-2.5.6-3.2.6s-.2,0-.4,0c-.2,0-.3,0-.4,0-.3,0-.7.2-1.3.6-.6.4-1,.6-1.4.6s-.5,0-.8-.2c-.3-.1-.6-.2-.8-.2-.4,0-1,.1-1.8.4-.8.3-1.4.4-1.8.4s-.4-.1-.6-.4c-.2-.2-.5-.4-.6-.4-1.8,0-3.4.8-4.7,2.3,0,0,0,.2,0,.3,0,0,0,.2,0,.3,0,.2,0,.4.3.7.2.3.3.5.3.7s-.2.5-.6,1c-.4.5-.6.8-.6,1-.2.4-.3,1-.4,1.9,0,.9-.1,1.4-.2,1.7-.2.8-.5,1.6-.9,2.5-.4.9-.8,1.9-1.4,2.9-.5,1-.9,1.9-1.1,2.4,0,0-.1.2-.4.4-.3.1-.4.3-.4.4v1c-.4.4-.6.6-.6.7-.6.6-.9,1-.9,1.4l-.6.6c-.6,0-1,.1-1.4.4-.4.2-.6.5-.8.8s-.3.4-.4.4h-1.1l-1-1.1c0-.3,0-.6,0-1.1,0-.4,0-.8,0-1.1,0-.7,0-1.3.3-1.9.2-.6.4-1.3.7-2.1.3-.8.5-1.4.6-1.9.2-.2.3-.3.3-.4s0-.2,0-.4c0-.2,0-.4,0-.6s.2-.4.5-.6c.3-.2.5-.4.5-.5.2-.4.6-1.3,1.3-2.7.7-1.4,1.2-2.7,1.7-3.9.5-1.1.7-2,.7-2.7s-.1-.4-.4-.4c-.2,0-.5.2-.8.4-.3.1-.6.3-.9.4-.2.1-.5.2-.6.2s-.2,0-.4-.1c-.2,0-.4-.1-.6-.1-.5,0-1.2.1-2.1.4-1,.2-1.7.4-2.1.4s-.2,0-.4,0c-.1,0-.3,0-.4,0-1,0-1.8.2-2.6.6-1,0-1.5,0-1.6.1h-.6c-.3,0-.8,0-1.6-.1-.8,0-1.3-.1-1.6-.1s-.5,0-.9.2c-.4.1-.7.2-.9.2s-.5,0-.9-.1c-.4,0-.8-.1-1.1-.1s-.7,0-1.4.3c-.6.2-1.1.3-1.4.3s-.4,0-.7-.1c-.3,0-.5-.1-.7-.1h-2.4c-.5-.2-1.2-.3-2.3-.3h-.7c-.7,0-1.1,0-1.4-.1-5-1.1-9.7-3.7-13.9-7.6-.6-1.1-.9-1.9-.9-2.3,0-2.2,3.3-6.8,9.9-13.7.6-.5,1.4-1.3,2.6-2.4,1.1-1.1,2-2,2.7-2.4,0,0,.3-.1.6-.1s.3,0,.4-.1c.3-.3.6-.5.9-.7.3-.2.6-.4,1-.5.4-.1.7-.3.9-.4.3-.5.7-.9,1.1-1.1.3-.6.5-.9.7-.9,1.3,0,3-1,5.1-2.6,2.1-1.6,3.7-2.4,4.7-2.4s.7.3.7.9l-1.9,1.1c-.3,0-.4.5-.4,1.1-.6,1.3-2.5,2.4-5.7,3.3-.4.3-.9.7-1.5,1.4-.6.6-1.1,1.1-1.5,1.5-2.9,1.2-4.6,2.5-5.3,3.7l-2.1,2c-1,.6-2.7,2.6-5.2,6-2.5,3.4-3.8,5.6-3.8,6.6s0,.4.1.9v.7c.1,0,1.7,1.4,1.7,1.4,1.9.6,3,1,3.1,1.3l.9.7c.4.4,2.1,1,5.3,1.7.7,0,1.8.1,3.4.4,1.6.2,2.9.4,3.7.4s.2,0,.4-.1c.2,0,.3-.1.4-.1.2,0,.4,0,.6.2.2.1.4.2.6.2s.3,0,.6-.3c.3-.2.5-.3.7-.3.9,0,1.5,0,1.9.3h2.7c.3-.2.6-.3,1-.3s.4,0,.6,0c.2,0,.4,0,.6,0,1,0,1.8,0,2.1-.3h1.9c.2.1.4,0,.7,0,.3-.1.5-.2.6-.2.6,0,1.4,0,2.4-.3,1-.2,1.8-.3,2.3-.3s.6.1.9.4c.3.2.5.4.7.4.6,0,1.1,0,1.5-.3.4-.2.8-.4,1.1-.5.3-.1.7-.5,1-.9.3-.5.6-.8.7-1,.1-.2.4-.6.7-1.2.3-.6.5-1,.6-1.1v-2.7c.1,0,.9-2.7.9-2.7,0-.4,0-.9,0-1.6.1-.7.2-1.1.2-1.4s0-.9-.1-1.6c0-.7-.1-1.3-.1-1.6s0-.6.3-1.1c.2-.4.3-.7.3-.8l-.3-.9c0,0,0-.2,0-.4,0-.2,0-.3,0-.4,0-.4-.2-.9-.6-1.6-.4-.7-.6-1.2-.6-1.5s.1-.4.4-.6c.2-.2.4-.5.4-.6s0-.3-.3-.6c-.2-.3-.3-.5-.3-.6v-1.4c0-.3-.1-.7-.4-1.2-.3-.5-.4-.9-.4-1.1s0-.4,0-.6c0-.2,0-.4,0-.5,0-.3-.2-.7-.5-1.1-.3-.5-.5-.9-.5-1.3s0-.4.1-.7c0-.3.1-.5.1-.6,0-.5-.4-1.3-1.1-2.6,0-.6-.2-1.4-.7-2.6-.5-1.1-.7-2-.6-2.7-.2-1-.8-2.2-1.7-3.9-1-1.6-1.5-2.7-1.7-3.3,0-.6-.1-1.2-.4-1.9-.3-.7-.5-1.2-.8-1.6-.2-.4-.6-.9-1.2-1.6s-1-1.2-1.1-1.5c0,0-.1-.3-.1-1-.2-.3-.7-.8-1.4-1.5-.8-.7-1.2-1.4-1.3-2.1h-.1c-.2-.2-.3-.3-.3-.4,0-.8,0-1.2.1-1.3.6.3,1.2,1,1.9,2.1.7,1.1,1.2,1.8,1.5,2.1,0,0,.4.8,1.3,2.1.9,1.3,1.3,2.4,1.4,3.1,1.4,1.7,2,3,1.9,4,.4.5.9,1.2,1.4,2.2.6,1,1,1.7,1.4,2.2v.3c.1.7.3,1.3.5,1.9.2.6.5,1.2.9,1.9.4.7.7,1.3.9,1.8.4.9.7,1.8,1.1,2.9.3,1.1.7,2.3,1.1,3.7.4,1.4.7,2.4.9,3.2,0,.3,0,.6,0,1.1.1.4.2.7.2.9s0,.2,0,.4c0,.2,0,.4,0,.6v.4c0,0,0,.3.3.6.2.3.3.5.3.7s0,.3-.1.7v.6c0,.4.1,1,.4,1.8.2.8.3,1.5.2,1.9.3.7.4,1.3.4,2s0,.6-.3.9c-.2.3-.3.6-.3.8,0,1.5.4,2.3,1.1,2.3s.9-.8,1.7-2.4c.9-1.6,1.8-3.3,2.7-5.1,1-1.8,1.6-2.9,1.9-3.1,0-.8.5-1.7,1.1-2.9.6-1.1,1-1.9,1.1-2.1,1-.9,1.7-2,2-3.4.3-.5.8-1.5,1.5-3.2.7-1.7,1.4-3,2-4.1.6-1.1,1.3-2,1.9-2.8,2-4.2,3.9-7.1,5.7-8.9.4-.6.9-1.6,1.5-3,.6-1.4,1.1-2.4,1.4-2.9l1.3-1.3c.2-.2.4-.7.5-1.4.1-.8.3-1.2.5-1.4,1-1.2,2.5-3.9,4.6-8,2.1-4.1,4.1-6.9,5.9-8.6.2-.4,1-1.8,2.3-4.3,1.3-2.5,2.4-4.3,3.3-5.4,2.4-2.9,3.7-4.7,4-5.1,1.9-3.7,3.3-6.2,4.1-7.4l3.1-4c2-2.6,3.7-4.8,5-6.6,1.3-1.8,2.1-3,2.3-3.6.3-.3.8-1,1.4-2.1.7-1.1,1.3-2,2-2.6s1.4-1,2.1-1,1,.1,1.6.4l.9.9c0,0,.1.2.1.4,0,.4-.1,1-.4,1.9-.3.9-.6,1.3-.9,1.3s-.3,0-.3-.3c0-.2.1-.3.1-.4h-.1c-.5,0-1.1.6-2,1.8-.9,1.2-1.7,2.5-2.6,4-.9,1.5-1.5,2.4-1.8,2.6l-1.1,1.3c-.4.4-.8.6-1.1.6-.2,0-.5.5-.9,1.4-.4.8-.8,1.7-1.3,2.6-.5,1-.8,1.5-.9,1.7-.2.3-.6.6-1.3.9-.7.3-1.1.6-1.3.9-.4.6-.9,1.5-1.6,2.7-.7,1.2-1.2,2.1-1.7,2.7v.4c-.5.6-1,1.5-1.7,2.9-.7,1.3-1.3,2.3-1.9,2.9l-1.3,1.3c0,1-.6,1.9-1.5,2.8-.9.9-1.5,1.5-1.8,1.9-.2.4-.5,1.2-.9,2.4-.4,1.2-.9,2.1-1.4,2.7-.3.4-.6.8-1,1.1-.4.4-.7.7-.9,1.1-.2.3-.5.9-.9,1.6-.4.6-1.1,1.6-2.2,3.1-1.1,1.5-1.8,2.6-2.2,3.4-.3,1-.7,1.9-1.1,2.9-.5,1-.9,1.7-1.4,2.4-.4.6-1,1.4-1.7,2.4-.7,1-1.3,1.7-1.6,2.2-.3.4-.5.9-.7,1.6-.2.7-.3,1.2-.4,1.4-.5.7-1.4,2.2-2.6,4.5-1.3,2.3-2.4,4-3.4,5.1,0,1-.5,2-1.1,3-.6,1-1.4,2.1-2.2,3.3-.9,1.1-1.4,2-1.7,2.6-.7,1.2-1.6,3.2-2.8,5.9-1.2,2.7-2.1,4.5-2.6,5.6,0,.2-.3.4-.6.6-.3.2-.5.4-.6.6-.2.3-.3.7-.4,1.4,0,.6-.2,1.1-.3,1.4-.6.5-1.2,1.8-1.9,3.9,0,0-.3.2-.6.3-.3,0-.5.2-.6.4,0,1.3-.8,3.3-2.7,5.9-1.9,2.6-2.9,4.3-2.9,5.1s.2.6.6.6,1-.2,1.9-.5c.9-.3,1.5-.5,2-.5s.7,0,1.2.3c.5.2.9.3,1.2.3s.4-.1.7-.4c.3-.3.6-.4.9-.4s.2,0,.4.1c.1,0,.3.1.4.1.3,0,.7-.1,1.1-.4.5-.3.9-.4,1.1-.4s.3,0,.5.3c.2.2.5.3.6.3s.5-.2.8-.6c.3-.4.7-.6,1.1-.6s.7,0,1.2.1c.5,0,.9.1,1.1.1.3,0,.5-.2.8-.6.2-.4.5-.6.9-.6s.5,0,.8.1c.3,0,.5.1.6.1.3,0,.6-.2,1-.6h.7c.2,0,.5,0,.9-.3.4-.2.8-.3,1.1-.3.7,0,1.1.1,1.4.4l.3-.6c.2-.3.4-.4.7-.4s.5,0,.9.1c.4,0,.8.1,1.1.1s1-.3,1.8-.9c.8-.6,1.4-.9,1.8-.9s.7.2,1.3.5c.6.3,1,.5,1.1.5,0,0,0-.2,0-.4,0-.2,0-.3,0-.4,0-.4,2.1-1.3,6.2-2.7,4.1-1.4,6.5-2.1,7.2-2.1s.3,0,.4.1c.3.3.5.4.7.4.4,0,1-.4,1.9-1.1.9-.8,1.5-1.1,2-1.1h.1c0,.2.2.3.3.3s.2,0,.3-.1l1-.9c.2,0,.6-.1,1.1-.1s1-.5,2.7-1.5c1.7-1,2.7-1.5,2.9-1.6l1.9-.6c.5,0,.9,0,1.1-.1.4-.9,1.4-1.7,3.1-2.6,1.7-.9,3.6-1.8,5.8-2.6,2.1-.9,3.5-1.5,4.2-1.9.2,0,.6-.5,1.2-1.2.6-.7,1-1.1,1.1-1.1,0-.2.3-.3.6-.3s.2,0,.4,0c.1,0,.3,0,.4,0,.2,0,.4-.1.6-.4.2-.3.3-.4.4-.4l1.6-.9c.8-.5,1.9-1.4,3.4-2.6,1.5-1.3,2.6-2.2,3.5-2.6l2.3-2.1c0,0,.5-.2,1.1-.4l1.3-1.1c1-1.2,1.9-2.1,2.7-2.6,5.2-5,9.9-10,14-15,.8-1,1.9-2.6,3.4-5.1,1.5-2.4,2.7-4.2,3.6-5.4.3-.4.9-1.6,1.7-3.6.9-2,1.7-3.3,2.4-3.9.2-.3.7-1.2,1.4-2.8.8-1.6,1.1-2.5,1.1-2.6v-.3c-.1,0-.1-.2-.1-.3,0-.2.2-.4.5-.6.3-.2.5-.5.6-.6.2-.4.3-.8.4-1.2,0-.4.2-.9.2-1.4,0-.5.1-.9.2-1.2.4-.4.6-.7.6-.9v-1.4c.1-.3.4-.7.8-1.3.4-.6.6-1,.6-1.1v-1.1c.4-.8.6-1.4.6-2s0-.2,0-.4c0-.2,0-.4,0-.6,0-.5.2-1.3.6-2.4.4-1.1.6-2,.6-2.6s0-.5-.1-.8c0-.3-.1-.6-.1-.8,0-.3,0-.7.1-1.1,0-.5.1-.9.1-1.1v-2.6c0-1-.2-1.9-.7-2.9v-2c-.2-.3-.3-.7-.4-1.2,0-.5-.2-.8-.3-.9l-1-2.3c-1-1.7-1.6-3.3-1.6-4.7,0-.4-.5-1-1.3-1.9-.8-.9-1.2-1.4-1.4-1.7l-1.4-2c-.5-.8-1.8-2.1-3.9-4.1-2.1-2-3.4-2.9-4-2.9h-1c-.2,0-.3,0-.3-.3-.6-.6-1.5-1.3-2.8-2.3-1.3-1-2.2-1.4-2.6-1.4s-.2,0-.4,0c-.2,0-.4,0-.6,0s-.4,0-.7-.3c-.3-.2-.5-.3-.6-.3h-2.3c0-.1-.3-.3-.6-.5-.3-.2-.5-.4-.7-.4h-.3c-.2.2-.3.3-.4.3-.7,0-1.5-.3-2.6-.9-1-.6-2-.9-2.7-.9s-.6,0-1.1.1c-.4,0-.7.1-.9.1h-.9c-.3,0-.9-.3-1.8-.6-.9-.3-1.6-.4-2.2-.4s-.2,0-.4,0c-.2,0-.3,0-.4,0s-.3,0-.6-.3c-.3-.2-.6-.3-.8-.3s-.2,0-.4,0c-.1,0-.3,0-.4,0-.2,0-.5,0-.8-.3-.3-.2-.6-.3-.8-.3s-.3,0-.6,0c-.3,0-.5,0-.7,0h-1.9c-.2,0-.4,0-.7-.1-.3,0-.5-.1-.6-.1-.2,0-.4,0-.7.1-.3,0-.5.1-.6.1-.3,0-.6,0-1-.2-.4-.1-.7-.2-1-.2s-1,0-1.7.2c-.8.1-1.3.2-1.6.2s-.4,0-.5,0c-.1,0-.3,0-.4,0-.3,0-.7,0-1.3.2-.6.1-1,.2-1.3.2-.5,0-1.2,0-2.1-.3-.2,0-.5-.2-.9-.5-.4-.3-.8-.5-1.1-.5s-.6.2-.9.7c-.3.5-.6.7-.9.7s-.3,0-.6-.2c-.3-.1-.5-.2-.6-.2-.2,0-.5,0-.8.1-.3,0-.6.1-.8.1s-.4,0-.6,0c-.2,0-.4,0-.6,0l-1,.4c-.3,0-.6,0-1-.2-.4-.1-.7-.2-1-.2s-.3,0-.6.3c-.3.2-.5.3-.6.3-.2,0-.4,0-.6,0-.2,0-.3,0-.4,0-.2,0-.4,0-.6.2-.2.1-.3.2-.4.2-.2,0-.5,0-.8-.3-.3-.2-.6-.3-.8-.3s-.5.1-.9.4c-.4.3-.7.4-.9.4s-.5,0-.9-.1c-.4,0-.7-.1-.9-.1s-.4,0-.7.2-.5.2-.6.2c-1.5.2-2.6.3-3.3.3l-3.4,1.3h-.4c-.4,0-.9.1-1.4.4-.6.3-1,.4-1.3.4s-.2,0-.4,0c-.2,0-.3,0-.4,0-1.1,0-4.3.7-9.4,2.1-.3,0-.6.4-1.1.8-.4.4-1,.6-1.6.6h-2c-.6,0-1.7.5-3.5,1.4-1.8,1-2.7,1.4-2.9,1.4s-.4,0-.7,0c-.3,0-.5,0-.6,0h-.4c0,.1-1.4,1.4-1.4,1.4l-6,2.3c0,0-.2,0-.4-.1-.2,0-.4-.1-.6-.1s-.3,0-.4.1c-.3.7-1,1.3-2.3,1.9-1.2.6-2.3.9-3.1,1l-1.9.9c-.5.3-1.3.4-2.4.4s-.5.3-1.1,1-1.4,1.3-2.1,1.8c-.7.5-1.2.8-1.5.8s-.2,0-.4,0c-.1,0-.3,0-.4,0-.3,0-.5.2-.8.6-.2.4-.5.6-.6.6s-.2,0-.4,0c-.1,0-.3,0-.4,0-.3,0-.5,0-.6.1l-.9.9c-.5.4-1.3.8-2.4,1.3-1.1.5-2,.7-2.4.6-2,.8-3.9,2-5.7,3.9-.4.2-1.1.4-2.2.7-1.1.3-1.8.6-2.1.9-.3.3-.7.8-1.2,1.4-.5.7-1,1.1-1.4,1.4-.3.2-.9.4-1.8.7-.9.3-1.7.7-2.4,1.3-.4.3-1.7,1.2-3.9,2.9-2.2,1.6-4.2,3.1-6.1,4.5-1.9,1.4-2.8,2.1-2.8,2.2,0,.2,0,.4.2.5.1.1.2.3.2.4s-.8.8-2.4,2.1c-1.6,1.3-2.4,2.4-2.4,3.3s.5,1.6,1.6,2.5c1,.9,2.3,1.8,3.7,2.7,1.4.9,2.3,1.5,2.6,1.8.2.2.4.5.6,1,.2.5.4.8.6.9.3.2.9.5,1.9.8,1,.3,1.7.8,2.1,1.4.3.2.9.7,1.9,1.5,1,.8,1.9,1.6,2.9,2.3.9.7,1.5,1.1,1.6,1.1h.9c0,0,0,.1.1.1v.6c-.3-.2-.8-.3-1.5-.4-.7,0-1.2-.2-1.4-.5-.2-.2-.9-.6-2.1-1.4-1.2-.7-2.4-1.4-3.6-2.1l-1.7-.9v-.3C4.9,109.6,0,105.5,0,101.9l.6-1.3c.5-.9,1-1.7,1.5-2.6.5-.9.8-1.3.8-1.4.7-.9,1.8-1.8,3.4-2.9,1.6-1.1,2.6-1.9,3.2-2.5l1.3-1.3c.3-.3.7-.6,1.2-.9.5-.3,1.1-.6,1.6-.9.6-.3,1-.6,1.3-.8,1-.9,2.3-1.8,4.1-2.9,1.8-1.1,3-1.9,3.7-2.4l2.4-1.7c.8-.6,2.3-1.4,4.7-2.4,2.4-1,3.9-1.8,4.7-2.5l1.1-1.1h.1c2.2,0,6.6-2.2,13.3-6.7.2,0,.7-.4,1.6-.8.9-.4,1.5-.7,1.6-.8,1.9.2,3.9-.7,5.9-2.7.2,0,.4,0,.5,0,.1,0,.3,0,.4,0,.4,0,2.8-.9,7.3-2.8,4.5-1.9,6.9-2.9,7.3-3.2,1.1-.2,3.1-.9,5.9-2,2.8-1.1,5-1.8,6.6-1.9.5-.2,1.7-.7,3.7-1.6h.3c1.2,0,3-.4,5.4-1.1,2.4-.7,4.1-1.1,5.3-1.1s.2,0,.4.1c.1,0,.3.1.4.1.4,0,.9-.1,1.6-.4.7-.2,1.2-.4,1.5-.4s.2,0,.4,0c.2,0,.4,0,.6,0s.5,0,.9-.1c.4,0,.7-.1.9-.1l1.7-.9c.5,0,.9.2,1.1.7.3,0,.5-.1.6-.4.1-.3.3-.4.5-.4h.1c-.3,0,0,0,.6.1.2,0,.4,0,.6-.2.2-.1.4-.2.6-.2s.2,0,.4.1c.2,0,.3.1.4.1h1.1c.3,0,.5-.2.6-.5.1-.3.3-.5.5-.5s.4.1.6.4c.2.2.5.4.6.4.4,0,1,0,1.9-.3.9-.2,1.5-.3,2-.3s.5,0,1,.1c.5,0,.9.1,1.1.1.5,0,.8,0,.9-.1,0,0,.3,0,.6-.1.3,0,.5-.1.6-.1s.2,0,.4.1c.2,0,.4.1.6.1s.4,0,.6-.3c.2,0,.3-.1.4-.1s.4,0,1,.3c0,0,.3.1.9.1s.7,0,1.3,0c.6,0,1,0,1.3,0ZM33.7,126.5c-.3,0-.4-.2-.4-.6.3,0,.4,0,.4.3v.3ZM35,161c0-.4.2-.6.6-.6s.4.1.4.4-.3.4-.9.4-.1,0-.1-.3ZM35.8,158.9c0-.7.4-1,1.3-1s.6.2.6.7-.3.9-1,.9-.9-.2-.9-.6Z"/>
            <path class="cls-2" d="M201.2,115.2c.2,0,.6-.4,1.2-1,.6-.6,1.2-.9,1.6-.9s.4.2.4.5,0,.5.3.5h1c.7,0,1,.9,1,2.7h-.3c-.2.5-1.1,1.7-2.8,3.8-1.7,2-2.7,3.2-3.1,3.5-1.8,1.4-2.7,2.2-2.7,2.4,0,.5-.5,1.1-1.3,1.9v.4h.1c0,.3-.2.4-.6.4h-.3l-.4.4c0,.2-.6.9-1.5,2.1-.9,1.2-1.8,2.3-2.6,3.4-.8,1-1.2,1.6-1.2,1.7h.1c0,.4-.5,1.1-1.6,2.1v.9c0,0,0,.1.3.1,1.2-1,1.9-1.8,1.9-2.4l4.6-5.3c0-.2,0-.3,0-.4,0,0,.3-.4.9-.9.6-.5.9-.8.9-.9h-.1c0-.1-.1-.4-.1-.4,0-.3.2-.7.6-1.1.4-.5.8-.7,1.1-.7h.1c0,.2.2.3.3.3s.2,0,.4-.1c.2,0,.3-.1.4-.1-.6-.4-.9-.8-.9-1.1s.2-.5.6-.9c.4-.4.9-.8,1.4-1.2.5-.4.8-.7.9-.9,0,0,0-.3.1-.5,0-.2.2-.5.3-.6.4-.5,1-.7,2-.7s.2,0,.4.1h.3c0,.1-.3.4-.3.4,0,0,0,.2.1.3,0,0,.2,0,.4-.1.1,0,.3-.1.4-.1.4,0,.6.2.6.6s-.2.4-.6.4h-.4c0-.1-.1.1-.1.1h.3c0,.1.3.4.3.4,0,.2-.2.3-.7.3,0,.2.2.4.6.5.4.1.6.3.6.4,0,.4-.2.9-.5,1.6-.3.7-.5,1.1-.5,1.4s0,.3.1.4c0,0,.1.2.1.3,0,0-.2.2-.3.4,0,.1-.2.3-.3.4s-.1.2-.1.3c0,.2,0,.5.2.9.1.4.2.7.2.9s0,.1-.1.1v.3c-.1,0,0,.2.1.4.2.2.3.3.3.4v.6c-.1.3,0,.7.5,1.4.4.6.6,1.1.6,1.5s0,.2-.1.3-.1.2-.1.3c2.9.5,4.3,1,4.3,1.4s0,.3-.1.3c.3.3.5.4.7.4s.2,0,.4-.2c.1-.1.3-.2.5-.2s.2,0,.4,0c.2,0,.4,0,.6,0s.2,0,.4-.2c.2-.1.4-.2.6-.2s.4,0,.6,0c.2,0,.3,0,.4,0,.2,0,2-.8,5.5-2.5,3.5-1.7,5.5-2.7,6.1-3.1,0,0,.3-.2.7-.6.4-.4.7-.6.9-.6s.2,0,.4.1c.2,0,.3.1.4.1.2,0,.3,0,.3-.1v-.6c.4,0,.6-.3.7-.6,0-.3.2-.5.4-.6,1.5,0,2.3-.2,2.3-.6s0-.4,0-.6c0-.2,0-.4,0-.6s0-.2.1-.3c2.5-.9,3.7-1.3,3.7-1.4.7-.7,1.1-1,1.4-1.1h.3c0,.2,0,.3.1.3,0,.2.2.5.5.9.3.4.5.6.5.7,0,.2-.2.3-.6.3-.7,0-.9.2-.7.7-.2.2-.6.6-1.3,1.3-.7.7-1.3,1.2-1.8,1.5-.5.3-1.1.5-1.8.5h-.4c0-.1-.4.1-.4.1,0,0,0,.2.1.3,0,0,.1.2.1.3,0,.6-.3,1.1-.9,1.5-.6.4-1.1.6-1.6.6-1.2,1.2-2.3,2-3.1,2.1l-.7.6c-.4.5-.7.7-1,.7s-.2,0-.3-.1c0,0-.2-.1-.3-.1-.2,0-.4.2-.7.7-.3.5-.5.7-.7.7h-2.7c0,.1.1.3.1.3,0,0,.1.2.1.3,0,.3-.2.4-.6.4s-.2,0-.3,0c0,0-.2,0-.3,0-.2,0-.6.3-1.1.9-.4,0-.8.2-1.4.6-.5.4-.9.6-1.2.6s-.4-.1-.6-.4c-.2-.2-.3-.4-.4-.4-.3,0-.4,0-.4.3h0c0,.1.1.4.1.4,0,0,0,.1-.3.1-.6.2-1.1.3-1.7.3s-.4,0-.7,0c-.3,0-.5,0-.6,0-.2,0-.4,0-.7.1-.3,0-.5.1-.6.1-.2,0-.3,0-.3-.1-.2,0-1.2-.4-2.9-1.3-1.8-.9-2.6-1.4-2.6-1.6s0-.2.1-.3c0,0,.1-.2.1-.3s-.5-.5-1.4-1.1c-1-.6-1.4-1.2-1.4-1.8s0-.1.1-.1v-.3c.1-.2,0-.4-.3-.6-.3-.2-.4-.3-.4-.4,0-.2,0-.5.2-.9.1-.4.2-.7.2-.9s-.1-.2-.4-.4c-.2-.2-.4-.3-.4-.4,0-.2,0-.5,0-.9,0-.4,0-.7,0-.9v-.6c0,0-.2-.1-.4-.1-.3,0-.6.2-.9.7-.3.5-.6.7-.9.7.2.4.3.6.3.7,0,.2,0,.3-.3.4l-.3.3v.3c.1.2,0,.5-.4,1-.3.5-.7.9-1.1,1.4-.4.4-.7.7-.8.8,0,.4-.2.9-.8,1.6-.6.7-1.1,1.1-1.4,1.1s-.1,0-.1-.1,0-.2,0-.3c0,0,0-.2,0-.3-.6,0-.9.4-.9,1.1.3,0,.4,0,.4.3,0,1-.3,1.4-.9,1.4s-.3,0-.4-.3c0-.2-.1-.3-.2-.3-.3,0-.4,0-.4.3v.6h.4c0,0,.1,0,.1.3,0,.3-.2.5-.7.8-.5.2-.7.5-.7.6v1.1c-.2,0-.4.4-.7.8-.3.4-.6.8-.9,1.1-.3.3-.5.4-.7.4s-.2,0-.3-.1c0,0-.2-.1-.3-.1s-.1,0-.1.1,0,.1.1.1.1,0,.1.1l-5.4,7.1c-.2,0-.3,0-.4-.3,0-.2-.1-.3-.2-.3s-.2,0-.4.3c0,0,0,.2.2.4.1.2.2.3.2.4,0,.8-.7,1.4-2,2s-2,1-2.1,1.4c0,0-.2-.2-.4-.7-.3,0-.5-.2-.6-.5-.1-.3-.4-.5-.8-.4,0-.2,0-.3-.1-.4,0,0,0-.1-.3-.1h-.1c0-.3,0-.5.3-.6.2,0,.3-.2.3-.3h-.1c0-.2-.1-.3-.1-.4,0-.5.5-1.1,1.5-2,1-.9,1.5-1.4,1.5-1.7s0-.3-.1-.3v.3c-.3.3-.5.4-.6.4-.2,0-.3,0-.3-.1,0-.9.5-1.6,1.6-2.3,0,0,.1.2.1.3s0,.2-.1.4h-.1c0,.3.1.4.4.4s.3,0,.3-.3h0c0-.1-.1-.4-.1-.4v-.4c-.2,0-.3-.2-.3-.6v-.3c.3,0,1-.9,2.2-2.5,1.2-1.6,1.8-2.4,1.8-2.6v-.7c.5-.4.7-.8.7-1.1l1-.9c.2,0,.3,0,.4.1h.1c.2.1.3,0,.3-.6h-.1c0-.2-.1-.3-.1-.4v-.3l.6-.7c0,0,0-.2-.1-.4h0c0-.4.2-1,.7-1.8.5-.8,1-1.6,1.6-2.5.6-.9,1-1.4,1.1-1.7,0,0,.3-.3.6-.6l.6-.3c0,0,0-.2-.2-.2-.1,0-.2-.2-.2-.4.5-.5,1.7-1.9,3.6-4.3,0-.3,0-.6.2-.9.2-.3.4-.6.4-.8,1-1,1.7-2,1.9-2.7.2,0,.5-.1,1-.1-.3-.3-.4-.6-.4-.9s.2-.5.6-.9c.4-.4.6-.7.7-.9l.9-.9c.3,0,.7-.5,1.3-1.1.6-.7.8-1.1.7-1.4ZM176.4,154.6c.3,0,.4,0,.4-.3-.3,0-.4,0-.4.3ZM180.5,148.5h.6c0,0,0,.1.3.1s.3,0,.3-.1c0-.4-.1-.6-.4-.6,0,.6-.2.8-.7.6ZM180.9,153.2c0,.2,0,.3.3.3h.1c0-.1.2-.1.3-.1,0-.2-.1-.3-.4-.3s-.3,0-.3.1ZM182.2,148.3c0,0,0,.2.1.3,0,0,.2,0,.3,0,.3-.3.4-.6.4-.9-.6,0-.9.2-.9.6ZM182.9,145.5c.3.4.6.6,1,.6,0,0,0-.2-.1-.2,0,0-.1-.1-.1-.2s0-.2,0-.4c0-.2,0-.3,0-.4,0,0-.2,0-.4.3-.1.2-.3.3-.5.4ZM183.2,147.8c.4,0,.6-.2.6-.7s0-.3-.1-.3c-.3,0-.4.3-.4,1ZM184.1,144.5h.6-.3c-.2-.1-.3,0-.3,0ZM184.8,141.3c0,0,.1,0,.1-.3v.3ZM185.6,144c-.4.3-.6.6-.6.9s0,.5.1.6c.2,0,.5-.3.8-.8.3-.5.6-.8.9-.8s.1,0,.1,0,0,0,.1,0,.2,0,.4-.3h-.3c-.3-.2-.5-.3-.6-.3-.3,0-.6.2-1.1.5ZM185.2,148.3c0,.3.2.4.7.4s.1,0,.1-.1,0-.1.1-.1c0-.2-.2-.3-.7-.3s-.3,0-.3.1ZM185.9,141c0,.2.2.3.6.3,0-.3,0-.4-.3-.4s-.3,0-.3.1ZM185.9,143.3h.1c0-.1-.1,0-.1,0ZM187.4,145h-.7c-.3-.1-.5,0-.6,0,0,.3.3.4,1,.4s.2,0,.4-.1c.1,0,.3-.1.4-.1.3,0,.5,0,.7.1h.1v-.3c0-.2-.2-.3-.6-.3s-.2,0-.4.1h-.3ZM186.8,139.2c0,0,0,.1.3.1s.3-.1.3-.4c-.4,0-.6,0-.6.3ZM187.2,141.9c0,.2.1.3.1.4v.3c0,0,0,.1.1.1h.7c0-.6,0-1,.3-1.4,0-.4-.1-.6-.4-.6-.2,0-.3.3-.4.6,0,.3-.2.5-.4.6ZM187.8,139.9c0,.2,0,.3.3.3s.1,0,.1-.3,0-.2-.1-.3c-.2,0-.3,0-.3.3ZM187.8,143.8l.3.3c.4,0,.6,0,.6-.3s0-.3-.3-.3-.4,0-.6.3ZM187.9,135.6c0,0,.2.1.6.1,0-.4-.1-.6-.4-.6s-.1.1-.1.4ZM188.5,134.3c0,.2.2.3.7.3,0-.3-.1-.4-.4-.4s-.3,0-.3.1ZM189.2,133.6h0c0-.1-.1-.1-.1-.1,0,0,0,.1.1.1ZM189.8,141.8l-.4.7c0,.4,0,.6.3.6s.2,0,.3-.1c0,0,0-.4.3-1h.6l-.3-.3c-.3,0-.5.1-.7.1ZM190.2,140.8v.3c.1,0,.4-.1.4-.1h.3c0-.4,0-.6-.3-.6-.3,0-.4.1-.4.4ZM190.8,139.8c0,.2.1.3.4.4.2,0,.4.1.5.2v-.4c.2,0,.2-.2,0-.3-.2,0-.3-.1-.4-.1-.3,0-.4,0-.4.3ZM191.6,133.1c0,.2,0,.3.3.3.3,0,.4-.2.4-.7s-.1-.1-.4-.1c-.2,0-.3.3-.3.6ZM192.8,139.8c.2,0,.3,0,.3-.3-.2,0-.3,0-.3.3ZM193.2,130.8c0,.2.1.3.4.3s.2,0,.3-.1c-.3,0-.4,0-.4-.3h-.3ZM194.3,135.5h.1c.2.2.3.3.3.4h-.1c0,.2-.1.3-.1.4s0,.1,0,.1,0,0,0,.1,0,.2-.3.4h.4c.2-1,.4-1.6.6-1.7h.1c0-.3,0-.4-.3-.4l-.9.6ZM195.5,124.5c0,.2,0,.3.1.3.4,0,.6-.1.6-.4s0-.1-.3-.1c-.3,0-.4,0-.4.3ZM195.5,128.3c0,.2.2.3.7.3h.3c.2-.3,0-.6-.4-.9-.4,0-.6.2-.6.6ZM195.9,134.2c0-.2-.1-.3-.4-.3,0,.2.1.3.4.3ZM196.6,132.3c0,.2,0,.3.3.3s.1,0,.1-.1-.1-.1-.4-.1ZM197.5,123.1c-.2-.2-.4-.3-.6-.3,0,0,0,.2.2.3.1,0,.3,0,.4,0ZM197.5,131.9h.3c0-.1-.2,0-.3,0ZM198.6,131.3c0-.2,0-.3-.1-.3,0,.2,0,.3.1.3ZM200.2,118.8c0,.2.1.3.4.3s.2,0,.3-.1c0,0,.1-.4.1-.9-.6.3-.9.5-.9.7ZM200.3,121.2c0,.2.2.3.6.3s.3,0,.4-.1c0-.3-.2-.4-.6-.4s-.4,0-.4.3ZM201.5,125.3c0,0,.2.1.3.1.2,0,.3,0,.3-.3h-.1c0-.1-.2,0-.3,0h-.1ZM202.5,132.8c0,0,0,.3.3.6l.3.4c.3,0,.4,0,.4-.3,0-.7-.2-1-.6-1s-.4,0-.4.3ZM203.3,119.3c0,.2.1.3.4.3s.3,0,.3-.3l-.3-.3c-.3,0-.4,0-.4.3ZM203.6,117.5c.4,0,.6-.2.6-.6-.4,0-.6.2-.6.6ZM203.6,123.8c0,.2,0,.3.3.3l-.3-.3ZM203.8,136c0,.2,0,.3.3.3s.3,0,.3-.1c0-.2-.1-.3-.4-.3h-.1ZM204.2,132.8c0,0,0,.1.1.1,0,0,0-.1-.1-.1ZM204.2,135.2c0,0,.2.1.4.1h0c0-.1-.4-.1-.4-.1ZM205.3,141.3v-.3h.1v.3ZM207.5,140.5h.3c0,.1.3-.1.3-.1h-.6ZM207.8,141.5h.7c0-.2,0-.3-.3-.3-.3,0-.4,0-.4.3ZM207.9,138.2c0,.2,0,.3.3.3s.3,0,.3-.1c0-.2-.1-.3-.4-.3s-.1,0-.1.1ZM209.2,141.5c0,.2,0,.3.3.3l.3-.3h-.1c0-.1-.1-.1-.1-.1h-.3ZM210.3,141.8c-.2.2-.1.3.1.3s.3,0,.3-.3h-.4ZM213.2,140.6c-.5,0-.7.2-.7.7s0,.4.3.4h.4c0-.5.1-.8.1-.9v-.3ZM213.2,139.5h.1-.1c0-.1,0,0,0,0ZM217.3,139.5c-.2,0-.3,0-.3.3s0,.4.2.6c.1.2.2.4.2.7.4,0,.6-.1.6-.4v-.7c-.3-.3-.5-.4-.7-.4ZM225.6,136.9c.3,0,.4,0,.4-.3-.3,0-.4,0-.4.3ZM228,132.8c0,.2,0,.3.3.3.3,0,.4,0,.4-.3s-.1-.3-.4-.3-.3,0-.3.3ZM230.3,133.2c0,.3.2.4.6.4s.3-.1.3-.4c-.4-.4-.5-.6-.4-.7,0,.2-.2.3-.3.4,0,0-.1.2-.1.3ZM231.3,131.3c0,.2.2.3.6.3h.1c0-.1.4-.4.4-.4l-.4-.4c-.5,0-.7.2-.7.6Z"/>
            <path class="cls-2" d="M239.3,146c.1,0,.3.1.4.1s.3,0,.5-.2c.2-.1.5-.2.6-.2.5.2,1,.5,1.4.9.5.4.8.7,1,.8.3.2.9.4,1.8.7.9.3,1.6.6,2.1,1.1.5.4.7,1.1.7,2.1s-.7,1.1-2,1.6l-.9.9h-.1c0,.1-.1.1-.1.1-.2,0-.4-.1-.6-.4-.2-.2-.4-.4-.6-.4s-.2,0-.3.1h-.3c-.2,0-.5,0-1,0-.4-.4-1-.8-1.9-1.3-.9-.5-1.5-1-1.8-1.4-.3-.5-.5-1.2-.5-2.3s0-.3.1-.6c0-.3.2-.6.4-.9.1-.3.2-.5.2-.6.2-.2.3-.3.4-.3s.2,0,.4.1Z"/>
            <path class="cls-2" d="M405.7,35.9c.3,0,.6,0,1.1-.2.4-.1.7-.2.9-.2h2c.3,0,.7.1,1.1.1s.4,0,.6,0c.2,0,.3,0,.4,0,.3,0,.7,0,1.1.2.5.1.9.2,1.1.2h.1c.2-.2.3-.3.4-.3s.3,0,.6.2c.3.1.5.2.7.2,1.1,0,2,0,2.6.1,0,0,.3.2.5.4.2.2.5.4.7.5.2.1.4.2.5.2.2,0,.4,0,.7.1.3,0,.5.1.7.1h1.6c.2,0,.3.2.4.5,0,.3.1.5.2.6.4.3,1.1.7,2.1,1.3,1,.6,1.9,1.1,2.6,1.6.7.5,1.2,1.2,1.7,1.9,0,.2.2.6.4,1.3.1.7.4,1.1.6,1.3l1,1h.1c0,0,.2,0,.3,0s.1,0,.1.1,0,.2-.1.4c0,.2-.1.3-.1.4,0,.5.3,1.1.8,2,.5.9.8,1.5.8,2v.3c-.2,0-.3.2-.3.3s.1.3.4.6v1c0,.5,0,1.3-.2,2.4-.1,1.1-.2,2-.2,2.6v.3c.1,0,.1.3.1.3,0,.2,0,.3-.1.4,0,0,0,.2,0,.3,0,0,0,.2,0,.3s0,.2,0,.4c0,.2,0,.3,0,.4,0,.8-.3,2-.9,3.7-.6,1.7-.8,3-.7,3.9,0,.2-.2.4-.6.6-.4.2-.6.5-.6.6,0,.3.1.5.4.6v.3c0,.3-.2.6-.5.9-.3.3-.5.6-.5.9s0,.2.2.4c.1.1.2.3.2.4,0,.5-.2,1.2-.6,2.3-.4,1-.6,1.9-.6,2.4-.2.4-.6.9-1.1,1.4,0,.8-.4,2-1.1,3.9-.7,1.8-1.3,3-1.8,3.7,0,0-.4.4-.8.8-.4.4-.6.7-.6.8s0,.2.1.4h.1c0,.7-.2,1.3-.5,1.8-.3.5-.8,1.1-1.4,1.8-.6.7-.9,1-1,1.1v.3c-.1,0,0,.1,0,.1,0,.2.1.3.1.4,0,.3-.3,1-.9,2-.6,1-1,1.7-1.1,1.9v.9c-.2,0-.3.3-.4.6,0,.3-.2.6-.3.9,0,.2-.2.4-.3.4s-.2,0-.4-.1h-.1c0-.1-.4.4-1,1.4-.6,1-1.2,2-1.8,3.1-.6,1.1-1,1.7-1.2,1.9,0,0,0,.1.1.1v.3c.1.5-.6,1.4-2,2.9l-1.3,1.4c-.3,1-1.6,3.4-4.1,7.1s-4,5.8-4.6,6.1c-.7.7-1,1.2-1,1.7s0,.4.1.4v.4c-.7,0-1.4.5-2.1,1.4-.8.9-1.1,1.7-1.1,2.4.2,0,.4,0,.6-.2.2-.1.3-.2.4-.2s.2,0,.4,0c.1,0,.3,0,.4,0,.4,0,.7-.4,1.1-1.2.3-.8.8-1.2,1.4-1.2h.3c.2,0,.3.1.4.1.2,0,.3-.3.3-.9v-.4l2-2.1h.1c0-.3,0-.4.1-.4.2-.7,1-1.6,2.4-2.9,1.4-1.2,2.8-2.3,4.1-3.3,1.3-1,2-1.5,2-1.6,0-.3,0-.4,0-.4,0-.4.3-.6,1-.7.7,0,1-.3,1-.6,0,0-.1-.3-.1-.6s.8-1,2.3-2.3c1.5-1.2,2.3-1.9,2.3-2h0c0-.2-.1-.3-.1-.4s.2-.3.7-.6c.2-.3.4-.5.6-.7.2-.2.4-.3.5-.4l12.1-11.6c.2,0,.3,0,.4.3.4,0,.6-.1.6-.4s-.2-.4-.7-.5c-.5-.1-.7-.4-.7-.6s.1-.1.4-.1h.1c.2,0,.3.1.4.1s.2,0,.3-.1.3-.1.6-.1c.2-.2,1-.7,2.5-1.6,1.5-.9,2.2-1.7,2.2-2.6,0,0-.1-.3-.1-.6,0-.6.3-.9,1-.9h.6c0,.1,1.9-1.5,5.4-4.6,3.5-3.2,5.5-5.2,6.2-5.9,1.1-.3,1.9-.7,2.1-1.3l2.9-2.9c0,0,.2,0,.4,0,.1,0,.3,0,.4,0,.4,0,.7-.3.9-.8.2-.5.5-.8.8-.9.4-.4,1.1-1,2.3-2,0,0,.5-.4,1.1-.8.7-.4,1.3-.9,2-1.4l1-.7c0-.3.8-1,2.4-2.1,1.6-1.1,3.4-2.3,5.3-3.6,1.9-1.2,3-2,3.3-2.3.2,0,.5-.5,1.1-1.1.5-.6.8-1,.9-1.1,0,0,.3.1.7.1h.3c.7,0,1.7-.4,3.1-1.2,1.4-.8,2.4-1.2,3.2-1.2s.2,0,.4,0c.1,0,.3,0,.4,0s.3,0,.5-.1c.2,0,.5-.1.6-.1,1.3,0,2.6.7,3.7,2.1.4.8.6,1.7.6,2.9,0,4-2.1,9.1-6.4,15.4-.3.3-.5.8-.6,1.6-.1.8-.3,1.2-.5,1.4s-.5.6-1.4,1.4c-.8.9-1.3,1.6-1.5,2.1,0,.6,0,1-.2,1.4-.2.3-.6.7-1,1-.4.3-.7.6-.9.9,0,1-.5,2.5-1.7,4.2-1.2,1.8-2,3-2.1,3.6l-1.6,1.6c0,.3-.2.4-.3.4-.2.4-.6,1-1.3,1.9l-.9,1.1c-.6,1.1-1.7,3-3.4,5.6-1.7,2.6-2.8,4.6-3.4,6-.4.4-.7.9-.9,1.6l-.6,1c0,.6-.4,1.4-1.1,2.6-.7,1.1-1.4,2-1.9,2.4,0,0,0,.2.2.4s.2.3.2.4c0,.4-.4.8-1.1,1.2-.7.4-1.1.7-1.1.9,0,.6-1,2.1-2.6,4.7-1.7,2.6-2.5,4-2.5,4.1v.9l-1.3,1.3c0,.3,0,.5.3.7-1.5,2.5-2.8,4.2-3.7,5.1,0,.7-.2,1.2-.7,1.6l-.7,1.3v.9c-1,.8-1.9,1.9-2.8,3.5-.9,1.6-2,3.8-3.1,6.6-1.2,2.8-1.8,4.3-1.9,4.5-.2.3-.6,1.2-1.1,2.8-.6,1.6-1.2,2.5-2,2.9h-.1c0,.6-.1,1.3-.4,2.2-.3.9-.4,1.5-.4,1.9s0,.3.1.6c0,.4-.2.8-.6,1.2-.4.4-.6.8-.6,1.1v1.7c0,0,.1.3.1.7,0,.4.2.6.4.7.5,0,1.1-.5,1.9-1.6l1.3-1.4c0,0,.4-.3,1-.6h.3c.4,0,1.1-.5,2.1-1.4,1-1,1.8-1.4,2.4-1.4s1.1.6,1.1,1.7-.9,1.8-2.7,3.8c-1.8,2-3.1,3.2-3.9,3.8,0,0-.4.1-.9.1s-.8.1-1,.4h-.4c-.4-.1-.6,0-.6.4,0,1.2-.4,1.9-1.1,1.9s-.5-.2-1-.7c-2.3-.2-3.4-1.4-3.4-3.7s0-.8.1-1v-1.6c.1,0,.1-1.7.1-1.7,0-.2.2-.5.4-.9.2-.4.3-.8.4-1.1,0-.3.1-.6.1-.9h0c0-.3-.1-.5-.1-.6.2-.5.4-1.2.7-2.2.3-1,.5-1.7.7-2.2.2-.3.6-.9,1.2-1.9.6-1,1.1-1.9,1.5-2.8.4-.9.6-1.6.6-2.1s0-.2-.1-.4c0-.1-.1-.3-.1-.4,0-.3.1-.5.4-.6.2,0,.3,0,.4-.1l.9-1.6c0,0,.1-.2.4-.4v-.7c0-.5.9-2,2.7-4.6,1.8-2.6,2.8-4.2,3-4.8l1-1.6c0-.3.1-.5.1-.7.2-.2.5-.6.9-1.1.4-.6.7-1,1-1.3.8-1,1.2-2.1,1.4-3.1l.7-.7c0-.2.4-.6,1-1.4s.9-1.3.9-1.8,0-.1-.1-.1v-.3c-.1-.4.5-1.5,1.8-3.3,1.3-1.8,1.9-3.1,1.9-3.9,1.8-1.6,2.9-3.6,3.3-5.9l1.1-2.1.7-.7c.4-.4,1.1-1.8,2.2-4.1,1.1-2.4,1.9-3.8,2.4-4.3l1.1-1.1h.1c0-.2,0-.4-.1-.5,0-.1-.1-.3-.1-.4,0-.2.1-.4.4-.6l1.3-1.3c0-.3.2-.6.6-1l.7-1.7c0-.3,0-.5.1-.6,1-1,2.2-2.7,3.9-5.2,1.6-2.5,2.5-4.3,2.6-5.4l1.6-1.7v-.3c0-.2,0-.3.1-.4.3-.3.5-.7.7-1.3.2-.6.4-1,.6-1.1l1.1-1.1c0,0,.3-.2.6-.7.3-.5.6-1,1-1.6.4-.6.6-.9.6-1,1-2.6,1.5-3.9,1.6-4,0,0,.2-.2.5-.4.3-.1.5-.3.6-.5,0-.4.3-1.1.6-2.3.3-1.1.7-2.1,1-3,.3-.9.7-1.5,1.2-1.9v-.3c0-.5,0-.8.1-.9,0-.2,0-.4.3-.6.2-.2.3-.5.3-.8s0-.4-.1-.6c0-.2-.2-.3-.3-.4,0,0-.2-.2-.4-.3-.2,0-.3-.2-.4-.4-.2.4-.4.6-.6.6h-1.7c0,.1-.9.5-2.3,1.1-1.4.6-2.2,1-2.3,1.1,0,.4-1.2,1.5-3.6,3.2-2.4,1.8-3.7,2.6-3.9,2.6h-.1c0-.1-.2-.1-.3-.1-.4,0-1,.4-1.7,1.1-.3.2-1,.7-2.3,1.4-1.2.8-2.4,1.5-3.5,2.1-1.1.7-1.6,1-1.6,1.1s0,.2,0,.4c0,.1,0,.3,0,.4,0,.2-.5.6-1.4,1.4-1,.7-1.6,1.1-1.9,1.1h-.1c-.2-.1-.3-.1-.4-.1-.2,0-1.3,1-3.3,3-1.7,2.4-3.2,3.6-4.4,3.6l-.9.9h-.4c-.2.2-.4.3-.6.3h-.3v1c-.3.3-.5.4-.7.4h-.6c-.2-.1-.4,0-.6.4l-.3.6c0,0-.3.2-.6.3h-.3c-.3,1.1-1.1,2.2-2.4,3.4-1.3,1.2-2.9,2.5-4.6,3.9-1.7,1.4-2.9,2.4-3.4,2.9-.5.7-1.2,1.5-2.3,2.5-1,1-1.8,1.7-2.1,2.2-.2.2-.5.4-.9.6-.4.2-.7.5-.9.8-.2.3-1,1-2.4,2.2-1.4,1.2-2.7,2.3-4.1,3.4l-1.9,1.6v.9h-.3c-.6.2-.9.3-1,.4,0,0-.2.4-.3,1h-.3c-.7-.1-1,.1-1,.7s0,.2,0,.3c0,0,0,.2,0,.3,0,.4-.3.6-1,.6-1,1.1-1.7,1.8-2.3,2-.2.4-.5.7-1,1.1-.5.3-.8.6-.9.8,0,.3-.4.6-.9,1.1-.5.4-.7.7-.7.9,0,.3.1.4.4.4v.3c-.1,0-1.9.9-1.9.9h-1.3v.3c-.1,0,0,.2,0,.4,0,.1.1.3.1.4,0,0-.2.1-.3.1h-.6c0-.1-.2,0-.4.2-.2.2-.3.4-.4.4h-.3c-.3-.1-.4,0-.4.1s.1.3.4.4v.6c0,.4-.2.6-.7.6h-.4c-.3,0-.4,0-.4.3v1.1c0,0-.2,0-.3.1-.2,0-.4,0-.7-.3-.3-.2-.5-.3-.6-.3,0,0,0,.2.1.4,0,.2.1.3.1.4,0,.2-.1.4-.4.5-.3.1-.4.3-.4.4,0,.6-.3,1.1-.9,1.7-.6.6-1.4,1.1-2.2,1.7-.9.6-1.4,1-1.6,1.3,0,0-.1.2-.1.4s0,.3-.1.4c-.5,0-.9.3-1.4.9-.4.6-.8,1-1.1,1.1-.7,1.1-1.5,1.9-2.4,2.1l-.3.4-1.1,1.1c-.6.3-1,.9-1.3,1.9-1.2,1.2-2.4,2.1-3.6,2.6-.3.2-.5.5-.6.9-.1.4-.2.7-.2.8-.8.8-1.9,2-3.4,3.6-1.5,1.6-2.7,2.9-3.4,3.7-.2,0-.4.2-.7.7l-1,1.1-.4.4c-.2,0-1.6,1.2-4.3,3.8-2.7,2.6-4.3,4.4-5,5.2,0,0-.1.3-.1.6s0,.5-.1.7c-.2.2-.6.5-1.4.8-.7.3-1.2.7-1.4,1.1l-2.1,3c-1.4,2-2.7,3.6-3.9,4.9-1.2,1.3-2.1,1.9-2.6,1.9s-.2,0-.4-.1c-.1,0-.3-.1-.4-.1-.2,0-.5,0-.9.1-.4,0-.7.1-.9.1-1.1,0-1.7-.4-1.7-1.3s0-.3.1-.3h.4c.2,0,.3,0,.3-.3s0-.1-.3-.1-.2,0-.4.2c-.1.1-.3.2-.4.2-.3,0-.4-.2-.4-.7,0-1,.3-1.6.9-1.9.4,0,1.5-1,3.4-2.8,1.9-1.8,2.9-2.8,3-3.2h0c0-.1.6-.1.6-.1.4,0,.7-.3,1.1-.8.3-.5.5-1,.5-1.4h-.1c0-.2-.1-.3-.1-.4s0-.1.1-.1.2,0,.2.1c0,0,.1.1.2.1l.6-.6c.6,0,1-.4,1.3-.8.3-.4.6-.6.9-.6v-.6c0-.2,0-.3.3-.4h.3v-.7c0,0,0-.1.1-.1,1.4-.8,3.1-2,4.9-3.7,1.9-1.7,2.7-3.1,2.6-4.3.5,0,1-.2,1.7-.7.7-.5,1-.9,1-1.3,0,0-.1,0-.1-.3v-.4c-.1-.6,0-.9.6-.9h.1c0,0,.2.1.3.1.5,0,.9-.3,1.2-1,.3-.7.7-1,1.2-1,0-.5.7-1.3,1.8-2.4,1.1-1.1,1.6-1.8,1.6-2,.3-.2.5-.5.6-.9.1-.4.3-.7.5-.9.6-.6,2-2.3,4.2-5.1,2.2-2.8,3.8-4.4,4.8-4.9,0-.3.2-.5.3-.6,0-.3.5-1,1.3-2,.8-1,1.5-2,2.3-3l1-1.3c0,0,0-.1-.1-.1v-.3c-.1-.3.1-.8.6-1.4.5-.7,1.1-1.3,1.8-2,.7-.7,1-1,1-1.1.2-.5.6-1.1,1.2-1.9.6-.8,1-1.4,1.2-1.8,0,0,.2-.1.4-.1s.3,0,.4,0c.1,0,.2-.2.2-.5h-.3c-.2-.2-.3-.3-.3-.4,0-1,1.1-2.4,3.4-4.3.9-1,1.9-2.7,3.1-5.1,1.2-2.3,2.1-4,2.8-4.9,0,0,.2-.2.4-.3.2,0,.4-.2.5-.3.1,0,.2-.2.2-.4s0-.2-.1-.4h-.3c0-.2.3-.7.8-1.6.5-.9.9-1.4,1.1-1.6l1.3-1.3c0-.6.3-1.2.9-1.8.6-.6.9-1.2.9-1.6,0-.2-.3-.4-.6-.7,0-.2.6-.9,1.7-2s1.7-2,1.7-2.7,0-.2-.2-.4c-.1-.1-.2-.3-.2-.4,0-.2.4-.5.9-1,.5-.5.8-.8.9-.9,1.5-3,2.2-5.1,2-6.3,0,0,.2-.4.5-.8.3-.4.5-.9.5-1.4s0-.2,0-.4c0-.2,0-.3,0-.4,0-.3.2-.6.5-.9.3-.3.5-.5.5-.7v-1.1c1-1.2,1.4-2.3,1.4-3.3s-.1-.4-.4-.6c-.3-.2-.4-.5-.4-.6l1-1c.7-.7,1-1.2,1-1.7s0-.3-.1-.5c0-.2-.1-.4-.1-.5s0-.2.2-.4c.1-.1.2-.3.2-.4s0-.2,0-.4c0-.1,0-.3,0-.4l.4-.9v-2.9c.1-.2.2-.5.4-.9.1-.4.2-.7.2-.9s0-.4-.1-.6c-.2-.2-.3-.3-.3-.4,0-.2.1-.5.4-.9.2-.4.4-.7.4-.9,0,0-.1-.2-.1-.4s0-.2,0-.4c0-.2,0-.4,0-.6s0-.5-.1-1.1c0-.5-.1-.9-.1-1.2,0,0-.3-.2-.6-.3-.3,0-.4-.3-.4-.6v-1.3c-.2-.2-.4-.4-.5-.7-.1-.3-.3-.5-.4-.6l-1-1v-1.1c0-.2-.2-.4-.6-.7-.4-.3-.9-.6-1.4-.9-.5-.3-.8-.5-.9-.6l-1-1c-1.2-.9-1.9-1.3-2-1.3s-.3,0-.6.1c-.6,0-1.3-.3-2.3-.9-1-.6-1.6-.9-2-1-.6,0-1.4-.2-2.5-.3-1.1,0-1.9-.2-2.5-.3h-.3c-.2-.2-.3-.3-.4-.3s-.2,0-.4.1c-.1,0-.3.1-.4.1s-.2,0-.3-.1h-.3c-.5.5-.8.7-.9.7l-.4-.3h-.6c-.2,0-.4,0-.6.1-.2,0-.3.1-.4.1s-.2,0-.3-.1c0,0-.2-.2-.4-.3-.1,0-.3-.1-.4-.1-.3.5-1,.9-2.1,1.3-.6-.3-1-.4-1.4-.4s-.9.2-1.8.5c-.9.3-1.5.5-1.9.5h-.6c-.2-.1-.5,0-.8.1-.3.2-.6.3-.8.3s-.2,0-.4-.2c-.1-.1-.3-.2-.5-.2-.3,0-.4.4-.4,1.3-.6.8-1.7,1.1-3.4,1.1s-.2,0-.4-.2-.3-.2-.4-.2c-.5,0-1.5.6-3.1,1.9-1.6,1.2-2.8,1.9-3.4,1.9s-.2,0-.4,0c-.1,0-.3,0-.4,0-.6,0-.9,0-1,.1l-1.4,1.4h-1.6c-.2,0-.3.1-.3.4s0,.3.1.5c0,.2.1.4.1.5s-.2.3-.6.6c-.4.3-.7.5-.8.5,0,0-.2.1-.4.1s-.2,0-.4-.1c0,0-.2.2-.3.5,0,.3-.2.5-.4.5h-.4c0-.1-.9.3-2.4,1.1-1.5.9-2.3,1.3-2.3,1.4h.1c0,.3.2.4.3.4,0,.2,0,.3-.3.3-.5,0-1,.2-1.6.6-.4.9-1.1,1.7-2.2,2.4-1.1.8-2.1,1.2-3.1,1.4l-1,1c-.7.6-1,.9-1.1,1,0,1-.3,1.5-1,1.6-.5,0-1,.5-1.6,1.3-.6.8-1,1.1-1.2,1.1s-.2,0-.4-.1c-.1,0-.3-.1-.4-.1-.3,0-.6.2-.9.7-.3.5-.5.8-.6.9l-1.1.6c-.2,0-.3.2-.3.4s0,.2,0,.4c0,.2,0,.3,0,.4,0,.4-.3.7-.9,1.1-.6.3-1.1.5-1.5.5-1,1.4-1.9,2.1-2.9,2-.5.4-1.3,1.4-2.4,2.9-1.1,1.6-2,2.5-2.8,2.8-1.3.6-2.3,1.2-2.9,2-.2.4-.3.7-.4.9,0,.2-.3.5-.6.9-.3,0-.5.1-.6.4-.1.2-.3.4-.4.4s-.5.3-1.1,1c-.6.7-1.3,1.4-2.1,2.1-.8.8-1.3,1.2-1.7,1.4,0,0-.2,0-.2-.1,0,0-.1-.1-.2-.1,0,0,0,.2,0,.3,0,0,0,.2,0,.3,0,.5-.4,1-1.2,1.4-.8.5-1.3.8-1.4,1,0,0-.2.1-.3.1h-.1c0-.1-.1-.3-.1-.3-.2,0-.3.2-.3.7l-.7,1.6c0,.2-.2.3-.4.4-.1,0-.3.1-.4.2-.2.2-.5.5-.9.9-.4.4-.8.8-1.1,1.2-.3.4-.5.6-.6.6h-.4c-.2-.1-.3,0-.3.4s0,.3,0,.6c0,.3,0,.5,0,.7l-.9,1.4c-.6,1-1.1,2.1-1.6,3.2-.5,1.1-.7,1.8-.5,2.2-1.1,2.7-1.7,4.2-1.7,4.6l-.6.7c-.2.2-.5.8-.8,1.7-.3,1-.6,1.9-.9,2.7l-.4,1.1h-.4c-.2-.1-.3,0-.3,0v.3c.3.2.4.3.4.4,0,.3-.6,1.5-1.7,3.5-1.1,2-1.8,3.5-1.9,4.4,0,.2-.1.3-.4.4-.2,0-.4.1-.4.2v.7h-.1c0,.1-.2.1-.3.1h-.3c-.7-.1-1,.6-1,2.1s0,.6.1.6c0,.2.1.3.1.4-.4.4-.9,1.1-1.5,2.3-.6,1.1-1.2,1.8-1.6,2-.2.3-.4,1-.7,2.1s-.6,1.9-.9,2.1c-.2.2-.6.4-1.2.6-.6.2-1,.4-1.1.7,0,.2-.3,1-.6,2.4-.3,1.4-.7,2.4-1.3,2.9l-2.3,2.3-.6,1.1v.3c-.1,0-.1,1.1-.1,1.1h-.4c-.2,0-.6.3-1.3,1v.7c.1.2-.4,1-1.4,2.4-1,1.4-1.6,2.3-1.6,2.6v1c-.1,0-.3.1-.3.1-.7.4-1.1,1-1.3,2,0,0-.5.5-1.2,1.1-.7.7-1.1,1.1-1.2,1.4,0,.8-.8,1.9-2,3.3-1.4,1.4-2.5,2.9-3.1,4.6,0,.3-.7.9-1.9,1.9-1.1,1-1.7,1.6-1.7,1.9v1c0,0,.1,0,.1.3-.2.3-.8.9-1.9,1.9-1.1,1-1.7,1.6-1.9,1.8,0,0-.1.3-.1.6s0,.5-.1.6c-1.2,1-2.3,2-3.1,3.3-.2.8-.8,1.7-1.9,2.7,0,0-.3.2-.7.4-.4.2-.7.4-1.1.6-.3.2-.5.3-.5.4s0,.2,0,.3c0,0,0,.2,0,.3,0,.2-.1.4-.4.6-.2.2-.4.5-.4.6,0,0-.3.3-.7.6-.4.3-.6.5-.8.7-.1.2-.2.5-.2.9-.4.4-1.4,1.2-3,2.4-1.6,1.2-2.6,2-2.9,2.5-.3.7-.9,1.4-1.9,2.3-1,.9-2.1,1.8-3.4,2.7-1.2,1-2.1,1.6-2.6,2-.3.2-.8.5-1.6.9-.8.4-1.3.8-1.7,1.1-.4,0-.7.3-1.1.6-.3.3-.6.5-.9.6-.3,0-.6,0-1.1.1-.4.2-.7.3-.9.3s-.4,0-.7-.2c-.3-.1-.6-.2-.9,0-.4,0-.6,0-.6.1-1.3,0-2-.2-2-.7s0-.4.1-.7c0-.3.1-.5.1-.6,0-.4-.2-.6-.6-.6-.4,0-.6-.2-.6-.4s0-.2.1-.4h.1c-.4-.5-.6-.8-.6-1v-.4c.1-.2,0-.5,0-.9,0-.4-.1-.6-.1-.7v-.3l1-1.3c.2-.3.4-.8.5-1.6.1-.8.4-1.3.6-1.7v-1c.3-.2,1.4-2.4,3.4-6.5,2-4.1,3.2-6.4,3.7-6.6.5-.5.7-.9.7-1.1v-.3c-.1,0-.1-.2-.1-.3,0-.3.4-.8,1.3-1.6.9-.8,1.3-1.3,1.4-1.5l4.7-7.7c0-.2,1.1-1.6,3.3-4.4,2.2-2.7,3.4-4.6,3.7-5.6.2,0,.4.1.6.1s2.2-2.5,6.3-7.6c4.1-5,6.2-7.7,6.3-8,.6-.4.9-.7.9-1s0-.2-.1-.4c0-.1-.1-.3-.1-.4s0-.2.1-.3c.5,0,.9-.4,1.4-.8.4-.4.7-.8.9-1.2l.3-.6c.2,0,.4,0,.6.1.2,0,.3.1.4.1.3,0,.5-.2.8-.6.2-.4.5-1,.7-1.6.2-.6.4-1,.5-1.1.2-.3,1.1-1.3,2.7-3,1.6-1.7,3.1-3.4,4.5-5,1.4-1.6,2.1-2.6,2.1-2.9,1.4-1.8,2.5-2.7,3.3-2.7h.1l-.3-.3c0-.3.9-1.2,2.6-2.8,1.8-1.6,2.7-2.4,2.8-2.5.3-.8,1.9-2.7,4.9-5.9s4.5-5.1,4.5-6c.5,0,.8,0,.9-.1,1.8-1.1,2.9-2,3.3-2.4l.6-1.1c0-.2.6-.7,1.6-1.4,0-.3.3-.9.5-1.7.2-.9.5-1.5.8-2,0,0,0-.2-.1-.4v-.3c0-.4.2-.9.6-1.6.4-.7.6-1.3.6-1.8s0-.2,0-.4c0-.1,0-.3,0-.4,0-.3.2-.8.6-1.6.4-.8.6-1.3.6-1.7s0-.2-.2-.4c-.1-.2-.2-.3-.2-.4,0-2.4.6-4.1,1.9-5.3h.6c.2.1.5,0,.9-.4h.1c1,.9,1.4,1.3,1.4,1.4s0,.1-.1.1v.3c-.1.2,0,.4.4.6.3.2.5.5.5.6v1.6c0,.2,0,.4-.2.6-.1.2-.2.4-.2.5,0,.2,0,.5-.1.9,0,.4-.1.8-.1,1.1s0,.5.1.6c.6,0,2.5-1.5,5.8-4.8,3.3-3.3,4.9-5.1,4.9-5.5,0,0,.3-.3.7-.5.4-.2.7-.4,1-.6s.5-.2.7-.2.2,0,.4.1c.2,0,.3-.1.3-.4s0-.1-.3-.1h-.3c0,.1,0-.1,0-.1,4-4.7,6.5-7,7.6-7,0-.4.4-1,1.1-1.7.8-.8,1.7-1.6,2.8-2.5,1.1-.9,1.7-1.5,1.9-1.6.6-.2,1.2-.7,1.9-1.5.7-.8,1.2-1.3,1.5-1.5.3,0,.8-.3,1.6-1,.8-.7,1.4-1.2,1.6-1.6,0,0,.2,0,.3.1h.1c.7.1,1.3-.6,1.9-2.1,4.8-3.5,7.4-5.2,8-5.1.3-.2,1-.8,2.2-1.7,1.2-1,2.3-1.8,3.2-2.6,1-.8,2-1.5,3.1-2.1,1.1-.6,2-.9,2.6-.9.2-.3.6-.6,1.1-.9.6-.3,1-.5,1.1-.7.4,0,.9-.2,1.6-.6.7-.4,1.3-.6,1.8-.5,0-.2.5-.5,1.3-.9.8-.4,1.3-.6,1.6-.6h.9l.9-.9c1.3,0,2.1,0,2.4-.3l.4-.4h.3c0,0,.3,0,.6,0,.3,0,.5,0,.7,0s.3,0,.3-.1c0,0,.2,0,.3-.2,0-.1.2-.3.4-.4,1.8,0,3-.2,3.4-.6.2,0,.4.1.7.1s.4-.1,1-.4h.4ZM246.9,193c.3,0,.7-.1,1.3-.4h0c0-.1-.3-.1-.3-.1-.7,0-1,.2-1,.6ZM317,107.1h-.1c-.2,0-.3-.1-.4-.1l-1.4,1.6c-1,1-2,2-3,3.1-1,1.1-1.7,1.8-2,2.1,0,.2-.4.6-1,1.1-.5.9-1.1,1.7-2,2.6l-1.9,2c0,0-.8.9-2.1,2.4-1.3,1.5-2.1,2.4-2.5,2.6-.7.4-1.2.9-1.6,1.6-.4.7-.7,1-.9,1.1-.2,0-.4,0-.5-.2-.1-.1-.4-.2-.6-.2s-.1-.1-.1-.4,0-.4-.1-.4c0,.3-.2.5-.2.8,0,.2,0,.4,0,.5,0,.2,0,.3.1.3l.6.3v.4l-.9.3c-.7.5-1.4,1.2-2.1,2.2-.8,1-1.1,1.8-1,2.4-.3.9-1.6,2-3.9,3.3l-.3.6c-.2.4-.3.7-.4,1l-.3.6h-1c-.7,0-1.4,1-2.1,3-.2.3-.5.6-.9,1.1-.4.4-.7.7-1,.9-.2.6-.5,1-.9,1.3,0,.6-.5,1.5-1.4,2.6-.9,1.2-1.6,1.8-2.2,1.8h-.3c0-.1-.2-.1-.3-.1s-.1,0-.1.1,0,.2.3.4c-.2.6-.5,1-.9,1.3,0,.4,0,.6-.1.7-1.3,1.7-2.4,2.7-3.1,3v.9c0,.3-.5.4-1.6.4,0,0-.1.2-.1.3,0,.7-.3,1.4-.9,2.2-.6.8-1.1,1.5-1.7,2.1l-1,1v.9h-.1c-1.6,1.8-2.5,2.7-2.6,3,0,.3,0,.4.1.4,0,.3-.2.7-.6,1.2-.4.5-.6.9-.6,1.2-.9.8-1.8,1.9-2.9,3.5-1,1.6-1.9,2.7-2.6,3.4h-.1v1.4c0,0,0,.2-.1.3l-.6.6c0,.4-.4.7-.9,1.1-.5.3-.8.6-.9.9,0,.3-.4.8-.9,1.4-.5.7-.7,1-.7,1.1,0,.3,0,.5.3.7.2.2.3.4.3.6-3.4,5.8-5.3,9.2-5.7,10.1,0,0-.2.3-.5.6-.3.3-.5.6-.5.8s0,.2,0,.4c0,.2,0,.3,0,.4,0,.2,0,.4-.3.6-.2.2-.3.4-.3.5s0,.3.1.6v.4c0,0,0,.3-.3.6-.2.3-.3.5-.3.7s0,.3.3.3h.1c0,0,.2-.1.3-.1s.1,0,.1.1v.9l-.3.3c0,.2.4.3.9.3.8,0,1.8-.6,3.1-1.7,1.3-1.1,2.2-1.7,2.6-1.7l.6.3,4.1-4h.7c0,0,.1,0,.1-.3s0-.2.1-.3h0c0-.2.7-.6,1.8-1.4,1.1-.7,1.6-1.4,1.6-2.1h.3c.2.1.7-.4,1.6-1.4.9-1,1.9-2.1,2.9-3.2,1-1.1,1.6-1.8,1.7-1.9,1.5-2.7,4.3-6,8.3-10l1.9-2.6c1-1.3,1.4-2.1,1.4-2.4.5-.2,1-1,1.7-2.4.7-1.4,1.2-2.1,1.7-2.1h.4c.3.1.4,0,.4-.3s0-.3-.1-.3c0-.5.5-1,1.4-1.6.9-.6,1.4-1,1.4-1.1s0-.3-.1-.5c0-.2-.1-.4-.1-.5,0-.3.3-.7.9-1.2.6-.5.9-1,.8-1.5,0-.2.4-.6,1-1.1,0-.2.4-.6.8-1.1s.6-1,.6-1.4c0,0,.4-.4.9-.9.5-.5.8-.9.8-1.2h-.1c0-.2-.1-.3-.1-.4s.2-.4.6-.9c.4-.5.7-.9.8-1.2l1.1-1.4c0-.2,0-.5.3-.9.2-.4.2-.8.1-1.1,1.3-1,2-1.8,2-2.3.5-.8,1.3-2,2.6-3.7,0-.2.4-.5.8-.9.4-.4.6-.8.6-1.3.3-.6.5-.9.6-1v-1.7c0,0,.3-.4.9-1,.6-.6,1-1,1.1-1.3.2-.5.8-1.4,1.7-2.8,1-1.4,1.4-2.4,1.4-3.1s0-.2,0-.4c0-.2,0-.3,0-.4,0-.2.2-.5.7-.8.5-.3.7-.6.7-.9h0c0-.1-.1-.4-.1-.4,0-.2.2-.4.5-.6.3-.2.5-.5.5-.6s0-.4-.2-.6c-.1-.2-.2-.4-.2-.5,0-.3.8-1.2,2.3-2.7v-1.4c0-.6.4-1.4,1.3-2.5.9-1.1,1.2-2,1.1-2.6l1.1-2.7c0-.9,0-1.3.1-1.4h.3v-.3c0,0-.2,0-.4.2-.2.1-.3.2-.4.2ZM255.9,198.3h.3c0-.1-.3-.1-.3-.1h0ZM282.2,173h.4v-.3h-.3v.3ZM297.2,124.5h0c0,.1.1,0,.1,0h-.1ZM308.7,132.6c0,0,.1-.2.1-.3h-.1v.3ZM393.8,134.2h0c0-.1-.1-.1-.1-.1h.1ZM395.4,132.3c0,.2,0,.3.3.3s.1-.1.1-.4,0-.1-.1-.1c-.4,0-.5,0-.3.3ZM398.3,132.9c-.4,0-.7.5-1,1.3,0,.2,0,.3.1.3s.3-.2.5-.6c.2-.4.4-.7.4-.9ZM407,117.2c0,0,0,.1.3.1s.1,0,.1-.3c-.3,0-.4,0-.4.1ZM425.3,84.6c0,0,0,.1.3.1s.1-.1.1-.4c-.3,0-.4,0-.4.3ZM434.8,99.2v-.3c-.3.2-.3.3,0,.3ZM475.1,66.6h0c0-.1-.1-.1-.1-.1h.1ZM480.4,60.7c0,0,.2.1.4.1h0c0-.1-.4-.1-.4-.1Z"/>
            <path class="cls-2" d="M486.2,112.9c0-.9.2-1.4.7-1.6.7-.3,1.5-1.1,2.4-2.5.9-1.4,1.5-2.2,1.8-2.4.7-.3,1.6-.4,2.7-.4s.2,0,.3.1c.2,1,.3,1.6.3,2h.1c.6.1,1,.2,1.1.3-.5.5-1.2,1.1-2.1,1.9-1,.8-1.6,1.4-2,1.8,0,.4-.1.6-.4.6-.2,0-.6.1-1.1.1h-.3c0,.1-.1.2-.1.3s0,.2.1.4h.1c0,.2,0,.3-.1.3h-.6c0,.1-.1.3-.1.3v.4c-.3.3-.6.5-.6.6s0,.2.1.3c0,.2-.1.3-.4.3s-.4.1-.3.4l-.6.3v.6c-.3,0-.8.7-1.6,1.9-.8,1.2-1.2,2-1.3,2.4,0,0-.4.2-.8.3-.4,0-.6.2-.6.4s0,.2.1.4c-3,4.3-4.7,6.6-4.9,6.9-2.2,1.8-3.7,4-4.6,6.7-.3.3-.7,1.2-1.3,2.9-2.1,2.1-3.1,4-3.1,5.6v1.1c-.2,0-.4.1-.7.4-.3.3-.4.5-.4.7,0,.7-.3,1.7-1,3.1-.7,1.4-1,2.4-1,2.9v2.1c0,0-.2.3-.2.6,0,.3,0,.5,0,.6,0,.2.3.9.7,2.2.4,1.3,1.1,1.9,2.1,1.9,1.6,0,3.1-.3,4.4-1,1.3-.7,2.9-1.8,4.9-3.5,2-1.7,3-2.6,3.2-2.8.8-.3,1.4-.6,1.9-1.1.5-.4,1.1-.9,1.7-1.5.6-.6,1.2-1,1.6-1.4.6-.3,1.9-1.5,3.9-3.8,2-2.2,3-3.5,3.1-3.9.4-.6,1.2-1.3,2.5-2.2,1.3-.9,2.1-1.5,2.5-1.9s.2-.4.4-.9c.2-.5.4-.8.6-1,.9-.3,1.4-.6,1.6-.9.5-.8,1.8-2.3,3.9-4.5,2.1-2.2,4.1-4.3,6.1-6.2,2-1.9,2.9-2.9,2.9-3.1l.9-.9c0-.5,1.1-1.4,3-2.7l3-2c1.3-.5,2.1-.9,2.3-1.3h2.1c0,.1.2,0,.4,0,.1,0,.3-.1.4-.1,1,0,1.8,1.4,2.6,4.1,0,.4,0,.9-.5,1.5-.4.6-.6,1.1-.6,1.4s0,.4,0,.6c0,.2,0,.3,0,.4,0,1.3-.5,2.2-1.4,2.6v.7c-.3,0-.4.2-.4.3s0,.2.1.3v.3c0,.6-.6,1.7-1.9,3.5-1.2,1.8-1.9,3-2,3.6l-1,1.1c0,0-.2.2-.2.4,0,.2,0,.4-.1.6,0,.2,0,.4,0,.5-.2.3-.7,1-1.4,2.1-.8,1.1-1.5,2.1-2.1,3.1-.6,1-1.3,2.1-2,3.2s-1.3,2.2-1.7,3.1c-.4.9-.6,1.5-.6,1.9h0c0,.1.1.4.1.4-1.2,0-1.9.4-1.9,1.3s.2.4.6.4.9-.2,1.1-.7c0-.2.4-.5,1-.9.6-.4,1.1-.8,1.6-1.1l.9-.6h0c0-.1-.1-.4-.1-.4,0-.3.4-.4,1.1-.4.2,0,.4-.4.6-.9.2-.5.4-.7.5-.7h1.1c.2,0,.3-.1.3-.4v-.3c-.1-.4.3-.8,1.3-1.3,1.1-1,3.8-3,7.9-5.9,4.1-2.9,6.5-4.3,7.3-4.3s.6.3,1.4,1c.7.7,1.1,1.1,1.1,1.4s0,.4,0,.6c0,.2,0,.3,0,.4v3.6c0,0,0,.2.1.3,0,0,.1.2.1.3,0,.2,0,.5-.2.9-.1.4-.2.7-.2,1s0,.2,0,.4c0,.1,0,.3,0,.4,0,.7-.3,1.7-.9,3.1-.6,1.4-.8,2.5-.7,3.2-.3.3-.4.6-.4,1s0,.4,0,.6c0,.2,0,.3,0,.4s0,.3-.1.6c0,.3,0,.6,0,.8,0,.2.1.5.4,1,.2.5.4.8.4.9s-.1.3-.4.6c-.3.3-.4.6-.4.8,0,.3.3.6,1,1,.7.4,1.2.6,1.6.6s.6,0,1.1-.3c.4-.2.9-.4,1.3-.6.4-.2.7-.4.9-.5.3-.2.7-.5,1.2-.9.5-.4,1-.8,1.6-1.1.5-.3,1-.4,1.5-.4.2-.2.5-.5.8-1.1.3-.5.7-1,1.1-1.3.4-.3.8-.5,1.3-.5,0-.2.5-.4,1.1-.6.6-.2,1-.4,1.1-.7,0,0-.1-.2-.1-.3,0-.5.1-.7.4-.7h1.9c.3,0,.4,0,.4-.1s0-.2,0-.4c0-.1,0-.3,0-.4v-.3c0,0,.2-.2.5-.4.3-.2.6-.4.9-.6l.6-.3c0,0,0-.2-.1-.4,0-.1-.1-.3-.1-.4s0-.2.1-.3h.1c0-.1.6-.3.6-.3.3,0,.5-.1.6-.1.2-.6.6-1.2,1.4-1.9.7-.7,1.4-1.1,1.9-1.1h.3c.2.2.3.3.4.3.3,0,.4,0,.4-.1.5,0,.7.2.7.6,0,.6-.2,1-.7,1.3-.7,1-1.5,1.9-2.6,2.9-1,1-2.2,1.9-3.6,2.9-1.3,1-2.3,1.8-2.9,2.4-.4.3-1,.9-1.7,1.7-.8.9-1.4,1.5-1.9,1.9-.9.3-2.4,1.3-4.5,3.1-2.1,1.8-4,2.6-5.6,2.6s-.3,0-.5,0c-.2,0-.5,0-.6,0-.4,0-.6.2-.7.3l-1-1.1c-.2-.5-.8-1.1-1.7-2-1-.9-1.4-1.7-1.4-2.4s.1-.2.4-.3c.2,0,.4-.2.4-.4s-.2-.7-.6-1.4c-.4-.8-.6-1.4-.6-1.9s0-.2.1-.4c0-.1.1-.3.1-.4v-.6c-.2-.4.1-1.8,1-4.3,0-.6,0-1.3.4-2.2.4-.9.6-1.6.6-2.1v-.6c0-.9,0-1,0-.4,0-1.8-.2-2.7-.6-2.7-1,0-2.6,1-4.9,2.9-2.3,2-3.8,2.9-4.6,2.8,0,0-.2.3-.2.5,0,.2-.2.5-.5.6,0,.3-.8.9-2.1,1.8-1.3.9-2.1,1.4-2.4,1.4-1,1.2-1.8,2-2.3,2.4,0,0-1.3,1-3.6,2.9s-3.5,3.1-3.6,3.4c-.4,0-1.1.7-2.3,1.9s-2,1.7-2.6,1.6c-.2.4-.7.9-1.6,1.6-.9.7-1.5,1.1-1.9,1.1s-.4,0-.6-.3c-.7-1.3-1-2.3-1-2.9s.4-.5,1.3-1c.9-.5,1.3-.8,1.4-.9v-1c0-.8.7-1.7,1.9-2.9,1.2-1.2,1.8-1.8,1.9-1.9.3-.5.9-1.5,1.8-3.2.9-1.7,1.7-2.9,2.5-3.6,0-.3.2-1,.8-2.1.6-1.1,1.1-1.7,1.4-1.8l.4-1c0-.2,0-.4-.3-.6l.7-1c.5-.7,1-1.4,1.4-2.1l.9-1c0,0,0-.2-.2-.4-.1-.2-.2-.4-.2-.6l.4-.3c0,0,.2,0,.4.1h.3c0,.1.3-.3.3-.3v-.9c1-.7,1.8-1,2.1-1s.1,0,.1-.3,0-.3-.1-.3l-1.1-.7c0-.2.5-.5,1.1-1,.7-.5,1-1,1-1.7s0-.2,0-.4c0-.1,0-.3,0-.4,0-.3.2-.6.6-1,.4-.4.6-.6.6-.7s0-.2,0-.4c0-.2,0-.4,0-.6s.3-.4,1-.9c.7-.5,1-1,1-1.5s0-.2-.1-.3c0-.4.3-1,.9-1.7.6-.8.9-1.4.9-1.9v-.6c-.1,0,0-.1,0-.1,0,0,.1-.2.1-.3,0-1-.4-1.4-1.1-1.4-.4.7-1.4,1.3-2.9,2-1.6.7-2.5,1.4-2.9,2.1-.5.4-1.4,1.3-2.8,2.7-1.4,1.4-2.5,2.4-3.4,3-.2,0-.3.3-.4.6,0,.3-.1.5-.2.6s-.3.2-.7.3c-.4,0-.6.2-.7.3-1.7,2.4-3,4-4,4.7v.7c-.6.3-1.3.9-2.2,1.9-.9,1-1.7,1.5-2.5,1.6h0c0,.1.1.4.1.4,0,0-2.2,2.5-6.5,7.1-4.3,4.6-6.8,7.2-7.4,7.6h-1c0,0-.4.3-.9.8-.5.5-.8.9-.9,1.1-.3.5-.8,1-1.6,1.4l-1.3.6c-.7,1.2-1.7,2.3-3,3.1-1.3.9-3,1.7-4.9,2.5-1.9.8-3.3,1.5-4.1,1.9-3.2,0-5.6-1.6-7.1-4.7-.2-.8-.3-1.5-.3-2.3v-.4c0-.2,0-.5,0-.9,0-.4,0-.6,0-.7.3-.6.5-1.5.7-2.6.2-1.2.5-2.1.9-2.6,0-1.7.5-2.9,1.4-3.4v-1c0-.4.2-.8.7-1.3s.7-.9.7-1.1v-1.3c0-.3.4-.8,1.1-1.6.7-.8,1.1-1.5,1.1-1.9.2-.3.8-1,1.8-2.2,1-1.2,1.6-2.2,1.9-2.9l.9-.9c0-.9.4-1.4,1.3-1.6,0-.4.7-1.7,2.1-4.1,1.4-2.3,2.3-3.5,2.7-3.6-.2,0-.3-.1-.3-.4s.5-1.1,1.6-2.4c1-1.3,2.2-2.6,3.5-4.1,1.3-1.4,2-2.3,2.2-2.7ZM500.4,86.5c0,0,.3,0,.5-.3.2-.2.5-.2.6-.1,0,0,.2.1.3.1.3.3,1,.7,2.3,1.4,1.2.6,1.9,1,2,1.1.5,1,.9,1.6,1.1,1.7v.6c-.2,0-.5.3-.9.6-.4.3-.8.6-1.2.9l-.6.4c-.4-.2-.6-.4-.6-.6h-.3c0,0-.2,0-.4.1-.2,0-.3.1-.4.1-.3,0-.4,0-.4-.1-1-1-1.5-1.4-1.7-1.4-.5,0-.9-.4-1.2-1.1-.3-.7-.5-1.3-.5-1.8s0-.5.3-.9c.2-.4.3-.7.3-.9,0,0,.2-.1.4-.1h.1c0,.2.2.3.3.3ZM519.1,118.2h.1-.1c0-.1,0,0,0,0ZM540.5,159.2c0,.2,0,.3.3.3l.4-.7h-.4c0-.1-.3.4-.3.4ZM541.2,159.2c0,.2.2.3.3.3s.1,0,.1-.3l-.3-.3c0,0-.1,0-.1.3Z"/>
            <path class="cls-2" d="M578.3,116.9c0-.3.2-.6.6-1.1.4-.4.6-.7.6-.9.4,0,1.1.3,2.1.8,1,.5,1.6.9,1.6,1.2,0,.5-.2,1.2-.6,2.1-.4.9-.9,1.4-1.4,1.5.2.6.3.9.3,1l-.4.6c0,0,0,.2,0,.4,0,.2,0,.3,0,.4v.3c-.6.5-1.3,1.2-2.1,2.1-.8.9-1.2,1.5-1.1,1.9v.3c.1,0-6.1,10.1-6.1,10.1,0,0-.2,0-.2-.2,0-.1-.1-.2-.2-.2-.4,0-.6.6-.6,1.7-.2.3-.6.6-1.1.9-.6.3-1,.5-1.1.7-.3-.3-.4-.5-.4-.6h.1v-.3c0-.3,0-.4-.1-.4-.4.4-.6.7-.6,1s.1.4.4.4.1,0,.1-.1c.2,0,.3.4.3,1.1l-.7.7c-.4,1.2-.6,1.9-.7,1.9,0,.3-.6,1.2-1.9,2.8-1.3,1.6-1.9,2.5-1.8,2.9-.2,0-.3,0-.4,0,0-.1-.2-.2-.3-.2h-.3c0,0-.2.1-.3.1,0,.3,0,.4,0,.4v.3c0,.3,0,.4-.1.4,0,.4.2.8.5,1.3.3.5.7.7,1.1.7s.3-.3.7-.9l.3-.3,1.1-.6c.2-.2.5-.5,1.1-.8.5-.3,1-.7,1.5-1.1l.7-.4c0,0,.5-.4,1.4-.9.8-.5,1.2-.8,1.2-1,0,0-.1-.2-.1-.3,0,0,.2,0,.4.3h.6c.2-1.9.9-2.7,2.1-2.7v-.7c1.1-.9,1.8-1.3,1.9-1.3,0-.7.8-1.5,2.1-2.4,1.3-.9,2-1.7,2.2-2.4.6-.4,1.3-.9,2.3-1.6,1-.7,1.5-1.1,1.7-1.3,0,0,.4-.1,1.1-.7s1.1-.9,1.2-1h.7c0,.2,0,.3.3.3s.2,0,.3-.1l-.4-.4h-.1c0,0,0-.2.2-.4s.2-.3.2-.4c0-.2.6-.7,1.8-1.5,1.2-.8,1.9-1.3,2.2-1.5.6-.2,1.5-.7,2.7-1.5,1.2-.8,2.2-1.3,3-1.5l.6-.6c1.1-1.1,2.3-1.7,3.4-1.7.5-.7.9-1,1.1-1v.3c0,.3.2.6.6.9.4.3.7.5.9.5h.4c.3-.7.4-1,.4-1.1,0-.3-.1-.4-.4-.4h-.1c0,.3-.2.4-.3.4-.3,0-.4-.1-.4-.4s.2-.3.7-.6c.5-.3.8-.4.9-.4h.3c.4-.2.7-.4,1-.4l1.6.9c0,0,.2,0,.3,0,0,0,.2,0,.3,0,.5,0,.7.7.7,2.1s-.3,1-.9,1.4c0,.9-.8,3.1-2.8,6.6-2,3.6-3.3,5.5-3.9,5.6,0,.5,0,.9-.5,1.3-.4.4-.6.6-.6.7,0,.2,0,.3.1.3,0,.4-.2,1.1-.6,2.1-.4,1-.7,1.6-.9,1.8h-.6c0,.1.1.3.1.3l-.3.3v1.1c-.3.3-.4.9-.4,1.9s0,.5.3.9c.2.4.3.8.3,1.1l.7,1.4c.4,1,.8,1.6,1.3,1.6s.4-.1.8-.4c.4-.2.7-.4.9-.4s.4.2.7.5c.3.3.6.5.9.5s.4-.1,1-.4c.6-.3.9-.4,1-.4h.4c.7-.1,1,0,1,.6h.6c0-.4,1.6-1.5,4.7-3.2,3.1-1.8,5.3-2.9,6.4-3.4,1.4-1.7,2.8-2.8,4.1-3.1,1-.3,2.8-1.7,5.4-4.1,2.5-2.5,3.9-3.7,4.2-3.7s.5.7,1.3,2.1l-.4.3c-.6,0-1,.2-1.2.4-.2.2-.5.5-.8.9-.3.4-.6.8-1,1.1-1.2,1.1-3.2,2.7-5.9,4.8-2.7,2-4.4,3.1-4.9,3.1h-.4c-.4,0-.6.2-.6.7.3,0,.4,0,.4,0l-1,1c-.2,0-1.6.9-4.1,2.4s-3.9,2.3-3.9,2.4c-1.1.3-1.8.4-2,.4h-.1c-.2-.2-.3-.3-.4-.3s-.7.3-1.8.9c-1.1.6-1.9.9-2.4.9s-.2,0-.4,0c-.2,0-.3,0-.4,0-.2,0-.4,0-.6.1-.2,0-.4.1-.5.1-1.9,0-3.4-.9-4.5-2.6-1.1-1.7-1.6-3.6-1.6-5.6s.4-2.9,1.1-4.7c.7-1.8,1.1-3.2,1.1-4.1.9-.3,1.6-1.3,2.1-3l4-5.4v-1.4c1-.7,1.5-1.2,1.6-1.6,0,0-.1-.2-.1-.3s0-.2,0-.4c0-.2,0-.4,0-.6,0-.7-.4-1-1.1-1s-1.2.2-1.7.7c-.4,0-.9.2-1.6.9-.7.7-1.2,1-1.5,1s-.4,0-.6-.1c-.2,0-.4-.1-.6-.1-.6,0-1.3.6-2.2,1.8-.9,1.2-1.7,1.8-2.4,1.8s-.3,0-.6-.1c-1.1,1.1-1.9,1.7-2.1,1.7s-.2,0-.3-.1c0,0-.2-.1-.3-.1,0,.2-.2.3-.3.3h-.2s0,0,0,.1h.6c0,.2-.3.4-.5.5-.2.1-.4.3-.4.4v.3c.1,0-.3.4-.3.4l-6,4.3c-.2,0-.3,0-.3-.1,0,.5-.5,1-1.1,1.4-.6.5-1.2.7-1.6.7s-.4,0-.6.1h.3c0,.5-.4,1.1-1,2h-1v.3h-.6v.4c.1.4-.4,1-1.4,1.9-1,.9-1.5,1.5-1.6,1.9l-.9,1h-.3c-.5.7-.9,1-1.1,1s-.3,0-.4-.3c0,.2,0,.3.1.4,0,0,.1.2.1.3,0,.3-.5.6-1.5,1-1,.4-1.5.7-1.5,1h.1c0,.4-.1.6-.4.8-.3.1-.6.2-1,.3-.4,0-.6.1-.7.2-.2,0-.6.5-1.1,1.2s-1.2,1.3-1.9,1.6v.6c-.5.3-1.2.8-2.1,1.5-.9.7-1.7,1.3-2.5,1.6-.8.4-1.5.6-2.3.6h-.3c-.9-.9-1.3-1.6-1.3-2.1s0-.3.3-.6c.2-.3.3-.5.3-.6s0-.1-.1-.1c0-.4.2-1,.6-2,.4-1,.7-1.5.9-1.6,0-.4.2-.8.4-1.4.1-.5.3-1,.4-1.4.1-.4.4-.7.8-1,.2-.3.5-.8.8-1.5.3-.7.7-1.3,1.1-1.9.4-.5.8-.9,1.3-1.2v-.4l.7-.6c.6-.5.9-.9.9-1.1h0c0-.2-.1-.3-.1-.4,0-.2.2-.5.5-.9.3-.4.5-.7.5-1s0-.6-.3-.6h-.3c0-.2.6-1.4,1.9-3.4,1.2-2,2-3.1,2.4-3.4-.3-.8.8-2.3,3.1-4.7,0-.3.3-.9,1.1-1.7.9-.9,1.4-1.3,1.7-1.3.5-.9.7-1.4.7-1.6s.2-.3.5-.5c.3-.2.5-.5.5-.6h0c0-.1-.1-.4-.1-.4,0-.3.4-1,1.1-2.1.8-1.1,1.1-2.1,1.1-2.9s0-.2,0-.3c0,0,0-.2,0-.3ZM557.5,154.5c0,0,0,.1.3.1,0,0,0-.1-.3-.1ZM561.1,153.6h.3c0-.1-.3-.1-.3-.1h0ZM561.6,154h.1c0,.1,0-.1,0-.1h-.1ZM562.3,149.5h.1c0-.1-.1-.1-.1-.1h0ZM562.6,150.3v-.3h.1c0,.1-.1.3-.1.3ZM563.9,146.5h.3c0-.1-.3-.1-.3-.1h0ZM564,143.6c0,0,0,.3.1.5.2.2.3.4.4.4h0c0-.1-.1-.3-.1-.3,0-.2.1-.4.1-.6v-.3c-.1,0-.6.3-.6.3ZM564.9,139.9h.1c0,.1.3,0,.3,0h-.3c0-.1-.1,0-.1,0ZM565.3,144.2h.1-.1c0-.1,0,0,0,0ZM566,140.2v-.3h-.3c0,.2,0,.3.3.3ZM568,140.3v-.3c-.1,0,0,0,0,0v.3ZM569.9,139c0,0,0,.1.1.1h-.1ZM570.2,135.9h.1c0-.1-.1-.1-.1-.1h0ZM570.2,136.8c.4,0,.6,0,.6-.3-.4,0-.6,0-.6.3ZM570.8,135.6h.3c0,.1.1,0,.1,0h-.1c0-.2-.1-.3-.1-.4v.4ZM573.8,131.2c0,0,0,.2.3.4.2.2.3.2.4.1v-.3c.1-.5,0-.7-.4-.7h-.1c0,.2-.1.3-.1.4ZM575.8,143c0,0,0,.1.1.1.2,0,.3,0,.3-.1h-.4ZM579.6,141.2c0,.2,0,.3.3.3,0-.2,0-.3-.3-.3ZM579.8,140.3c0,0,0,.1.1.1s.1,0,.1-.1h-.3ZM580.2,140h.1c0,.1.1,0,.1,0h-.1s0,0-.1,0ZM588.2,133.8c0,0,.1,0,.1-.1s0-.1-.3-.1c0,.2,0,.3.1.3ZM589.9,132.1v.7c.3,0,.5,0,.7-.3l-.3-.3c0,0,.2-.1.3-.1,0-.2-.1-.3-.4-.3l-.3.3ZM594.8,129.3c0,0,0,.1.1.1s.2,0,.3-.1h-.1c0-.1-.1-.3-.1-.3v.3ZM597.8,151.5c0,.3.1.4.4.4s.3,0,.4.1c0-.4-.3-.6-.9-.6ZM602,125.3c0,0,.1,0,.1-.3h-.3.1v.3ZM603,154h.1l.4-.3-.3-.4c0,0-.2,0-.3.1v.6ZM603.2,123.1l.6-.4h.1c0,.3-.2.4-.7.4ZM603.6,154.2c0,0,0,.1.1.1s.1,0,.1-.3v-.3c-.1,0-.3.1-.3.4ZM604.5,123.9h.1c0-.1.1,0,.1,0h-.3ZM606,125.9c0,0,0,.2.1.3v-.3c.1,0-.1,0-.1,0ZM611.5,151.6c0,0,0,.1.1.1v-.3h-.1Z"/>
            <path class="cls-2" d="M639.2,126.1v-.9c2.1-2,3.2-3,3.4-3,.6,0,1.1.3,1.5.8.4.5.6,1.1.6,1.6s-.4,1.2-1.1,2c-.7.8-1.4,1.1-1.9,1l-1.4,1.4-1.9,1.7h0c0,.1.4.1.4.1h0c-.4.1-.7.4-1.1,1-.3.6-.4,1-.2,1.3-.4.3-.6.5-.7.7l-1.1,1.1c-.7.8-1.7,2.3-3.1,4.7-1.4,2.4-2.6,4-3.8,4.9h0c0,.1.1.3.1.3.2,0,.3.2.3.3,0,.2-.2.4-.6.6-.4.2-.6.3-.6.4,0,.2,0,.4.1.6,0,.2.1.4.1.6v.3c0,.2-.3.4-.5.6-.2.2-.4.4-.5.6.2.2.3.3.3.4v2.1c0,0,0,.2-.2.3-.1,0-.2.2-.2.3,0,.2.1.3.4.4.3,0,.6,0,.9.1.3,0,.5.2.5.4,0,.4-.1.8-.4,1.2-.3.4-.6.6-1,.6h-.1c-.2-.4-.4-.6-.7-.6s-.3,0-.4.3c0,.2-.2.3-.4.3h0c0-.1-.1-.3-.1-.6h-.9c-.4-.4-.6-.6-.6-.7s-.2-.3-.5-.7c-.3-.4-.5-.7-.5-1s0-.3.3-.6c.2-.3.3-.6.3-.8v-1.3c0,0,0-.2.2-.4.1-.1.2-.3.2-.4s0-.2-.1-.3v-.3c-.1,0,0-.3.4-.6.4-.3.6-.6.7-.8v-1.4c.1,0,1.1-1.3,1.1-1.3h0c0-.1-.1-.4-.1-.4,0-.9.5-1.8,1.6-2.9s1.6-1.7,1.7-2h-.1c0-.9.6-1.9,1.7-3.2s1.8-2.1,1.9-2.4c0,0-.1-.2-.1-.4l3.1-3.1c.2-.4.7-1,1.5-1.8.8-.8,1.4-1.2,1.6-1.2ZM626.5,149.3c-.2,0-.3-.1-.3-.4.2,0,.3.1.3.4ZM627.6,143.3c0,.2,0,.3.3.3.4,0,.6-.2.6-.6-.5,0-.8,0-.9.3ZM628.6,142.5c0,.4.2.6.6.6s.1,0,.1-.1l1-.4c0,0,.1,0,.1-.3,0-.3-.2-.4-.7-.4-.8,0-1.1.2-1.1.7ZM629.3,139.8c0,.5.2.7.6.7s.2,0,.4-.2c.2-.1.4-.2.6-.2v-.3c0-.3,0-.4-.1-.4-1,0-1.4.1-1.4.4ZM630.7,138.9c0-.2,0-.3.1-.3s.1,0,.1.3,0,.1-.1.1h-.1ZM631.9,137.2c0,.2.2.3.7.3h.1l.4-.3h0c0-.3,0-.4-.3-.4-.7,0-1,.1-1,.4ZM633.4,134.8h-.1c0,.1-.1,0-.1,0l-.3.4c-.2,0-.3,0-.4-.1,0,.4.1.6.4.6,0-.2,0-.3.3-.3s.3,0,.3.3c.3-.3.4-.5.4-.6,0-.2,0-.3-.3-.3h-.1ZM633.4,134.3h-.1c0,.1,0,0,0,0h.1ZM634.2,133.5c-.3,0-.4,0-.4-.3,0-.2.2-.3.3-.4v.7ZM634.2,132.6h-.1c0,0,.1-.2.1-.3v.3ZM635.4,132.8c0,0,0-.1,0-.1h.3c0,0,.1,0,.1.1,0,.2,0,.3-.3.3,0,0-.1-.2-.1-.3ZM636,132.5c0,0-.1,0-.1-.1s0-.1.1-.1v.3ZM636.4,133.5c0,0,0-.2.3-.4,0,.2,0,.4-.1.6,0,0-.1,0-.1-.1ZM636.6,131.1c0,.3.3.4.9.4s.3,0,.3-.3c0-.3-.2-.4-.6-.4s-.6,0-.6.3ZM638.2,128.3h-.3c0-.2,0-.3.3-.3v.3ZM638.4,129.1c0-.2.1-.3.4-.3,0,.3,0,.5-.1.6-.2,0-.3,0-.3-.3ZM639.2,130.6h-.1c0,.2,0,.3.1.3h.1c0-.1-.1-.3-.1-.3ZM639.3,127.8h0c0-.1.3-.1.3-.1,0,0,0,.1-.3.1ZM642,84.5c0-.7.3-1,1-1l2.9.7c0,.3.2.5.3.6,0,.1.3.2.5.3.2,0,.5.1.6.2,0,.4.3.8.6,1.1.3.4.6.8,1.1,1.1.4.4.7.7.9,1h0c0,.4-.3.8-.9,1.4-.6.5-1,.8-1.2.8s-.5-.4-1.1-1.2c-.5-.8-1-1.2-1.5-1.2h-.4c-1,.1-1.6-.3-1.6-1.1l-.6-.9c-.4-.6-.6-1.2-.6-1.9ZM645.9,86.2c-.4,0-.6,0-.6-.3.4,0,.6,0,.6.3Z"/>
            <path class="cls-2" d="M661.9,120.1c3.6-2.4,6-3.6,7.1-3.6,2.3,0,3.4.6,3.4,1.7v.3c-.1.3,0,.6.4,1,.3.4.5.7.5,1s0,.4-.2.7c-.1.3-.2.5-.2.7v.3c.1.2,0,.4-.2.6-.2.2-.3.5-.2.8-.2.2-.4.4-.7.6-.3.2-.5.4-.6.5,0,.7-.3,1.3-1.3,1.9-1,.6-1.4,1-1.4,1.3h0c0,.2.1.3.1.4,0,.4-.2.8-.7,1.3s-.9.7-1.1.7l-1,1.1c0,1.3-.5,2.3-1.1,2.9-1.1.6-1.7,1-1.7,1.1v.3c.1,0-.4.4-.4.4,0,.6-1.2,2-3.8,4.3-2.6,2.3-4.3,3.5-5.1,3.7-.2.2-.3.5-.3,1-.2.2-.6.5-1.4,1.1-.7.5-1.1,1.1-1.1,1.6h0c0,.1-.3,0-.6,0-.3-.1-.5-.2-.7-.2-.3,0-.4.5-.4,1.4h0c0,.1.6,1.7.6,1.7,0,.4.7.8,1.7,1.3,1,.5,1.6.8,1.7,1,.3.8.8,1.3,1.6,1.7h.1c.2,0,.3,0,.3-.1v-.6h2c0-.1.1,0,.1,0,.3,0,.6,0,.9,0,.3,0,.5,0,.7,0,.3,0,.5,0,.6-.1,0,0,.3,0,.6-.1h.4c.2-.1.4,0,.7,0,.3,0,.5.1.7.1h.1c0-.2.2-.3.3-.3.2,0,.3,0,.4.1l.9-.3c0,0,.2,0,.4.1.2,0,.3.1.4.1.2,0,.4-.2.7-.5.3-.3.5-.5.7-.5s.2,0,.4.1c.1,0,.3.1.4.1.2,0,.6-.2,1.2-.5.6-.3,1.1-.5,1.4-.5-.2,0-.3,0-.3-.1,0-.4,0-.6.1-.6s.2,0,.4.1c.1,0,.3.1.4.1l.9-.4c2-.7,5.5-2.1,10.5-4.3,5-2.2,7.5-3.7,7.5-4.4.9-.2,2.4-1.1,4.7-2.7,2.3-1.6,3.6-2.4,4-2.4s.2,0,.4.1h.3c.5.1.7,0,.7-.3,0-1.2.4-1.9,1.1-1.9h.1l1.3.7v.3c0,.8-.1,1.1-.4,1.1h-1.3c-.3.2-.4.3-.4.4s0,.2,0,.4c0,.1,0,.3,0,.4v.3c0,.3-.1.4-.4.4h-1.6v.9l-1.6.9c0,0-.2,0-.4-.1h-.1c-.3,0-.5,0-.5.2,0,.1,0,.3,0,.5s0,.3-.1.4c-.3.2-.6.5-.9.9-.3.4-.5.6-.6.6l-1.4.7c-1.7,1-3,1.6-4,1.9,0,.3-.8.9-2.4,1.9-1.6,1-2.8,1.4-3.4,1.4h-.3v.6c.1,0-1.3.9-1.3.9h-.6c0-.1-.1-.1-.1-.1-.4,0-1.1.3-2.1.9s-1.7.9-2.1.9l-.7.7c-.6,0-1.3.4-2.3,1-1,.6-1.5.9-1.7.9-.6,0-.9-.2-.9-.6h0c0-.1.1-.4.1-.4l-.4-.4c-.2.2-.3.4-.3.7h.1c0,.3,0,.4.1.4,0,0-.2.3-.7.6-.5.3-.8.4-1,.4s-.2,0-.4,0c-.1,0-.3,0-.4,0-.5,0-1.2.2-2.1.6-.9.4-1.6.6-2.1.6h-.4c-.3-.1-.7,0-1.1,0-.5.1-.9.2-1.1.2s-.3,0-.5,0c-.2,0-.4,0-.5,0h-.4c0,0-.2,0-.4.2s-.3.2-.4.2c-.5,0-1.2-.1-2.1-.4-.9-.2-1.5-.4-1.9-.4h-1.6c-.4,0-1.3-.6-2.9-1.7-1.5-1.1-2.5-2-2.9-2.4v-.3c-.1,0,0-.1,0-.1,0,0,.1-.2.1-.3,0-.2-.3-.5-.9-.8-.6-.3-.9-.5-.9-.6,0-1.2,0-1.9-.3-1.9h-.3c-.2,0-.3-.2-.3-.4s0-.3.2-.6c.1-.3.2-.5.2-.7v-.3c0,0-.1-.2-.1-.3,0-.2.1-.4.4-.6.4-.2.6-.3.6-.4s-.2-.2-.6-.4c-.4-.2-.6-.4-.6-.6s.2-.5.7-1.1c.5-.5.7-.9.7-1.1-.3,0-.4-.3-.4-.6,0-.6.4-1.4,1.1-2.5.7-1.1,1.1-1.9,1.1-2.4s0-.2,0-.3c0,0,0-.2,0-.3,0-.3.3-.5,1-.5.7,0,1-.2,1.1-.4-.5-.3-.7-.7-.7-1.1s.3-.5,1-.9c.7-.4.9-.8.7-1.2,0,0,0-.2-.2-.2-.1,0-.2-.1-.2-.2,0-.2,0-.3.3-.3.9,0,1.7-.8,2.6-2.3.9-1.5,1.8-2.3,2.7-2.3s.3,0,.3.1c0,0,.1-.2.1-.4v-.3h0c0,.1-.1-.3-.1-.3,0-.3.3-.8,1.2-1.6.9-.8,1.9-1.6,3-2.5,1.1-.9,1.7-1.5,1.9-1.9ZM659.6,127.1c-.2,0-.6.4-1.1.8-.6.4-.9.7-.9.8s0,.2.1.4h.1c0,.4-.9,1.5-2.6,3.4s-2.7,2.8-2.9,2.9v.6c-.4.2-1,.8-1.8,1.9-.8,1-1.2,1.8-1.2,2.1s0,.2,0,.4c0,.1,0,.3,0,.4s0,.2-.2.4c-.1.1-.2.3-.2.4h.1v.4c0,.3-.1.6-.4.9-.3.3-.4.6-.4.8s.1.4.4.6c.3.2.5.3.7.3s1.1-.8,2.6-2.3c1.6-1.5,3.2-3.2,5-5,1.8-1.8,2.8-2.9,3.1-3.1,1.6-1.1,2.7-2.1,3.3-3v-1.4c.1,0,.2-.1.3-.1h.3c0,.1.1,0,.1-.1.2-.4.4-.5.6-.4,0-.4,0-.7.3-1.1.2-.3.5-.7.9-1,.4-.3.7-.6.8-.8,0-.8,0-1.3.1-1.6,1-.5,1.6-.9,1.6-1.1s0-.3-.3-.6c-.2-.3-.3-.5-.3-.6s0-.1.1-.1h.1c0,0,.2.1.3.1.4,0,.6-.2.7-.4,0-.2-.1-.3-.4-.3-.5,0-1,.3-1.4.8-.5.5-.8.8-1,.8h-1c0,0-.2.1-.3.4,0,.2-.2.4-.3.4-1.9.6-3.7,1.7-5.3,3.4ZM653.3,131.8c0-.3,0-.4.3-.4s.1,0,.1.1,0,.1-.1.1h-.3ZM654.7,129.3h-.1c0-.1.1-.1.1-.1h0ZM655.3,128.6h-.1c0-.1.1-.1.1-.1h0ZM655.4,140.3c0,.3,0,.4.3.3h.1c0-.4,0-.6-.3-.6s-.1,0-.1.3ZM658.3,137.3h.3c.3.1.5,0,.6-.3-.2-.2-.3-.3-.4-.3-.3,0-.4.2-.4.6ZM659.6,135.9c0,.3.1.4.4.4v-.3c.1-.4,0-.6-.3-.6s-.1.1-.1.4ZM661.4,121.6c0,.3.1.4.4.4s.3-.1.3-.4h-.3c-.3-.1-.4,0-.4,0ZM663.4,123.3c0,0-.1,0-.1-.3,0,0,.1,0,.1.3ZM664.3,120.2c-.2-.2-.3-.3-.4-.3v.3c-.1.3,0,.4.4.4h.6c.3-.1.5-.2.6-.3,0-.4,0-.6-.1-.6h-.7v.3c-.1,0-.2.1-.3.1ZM664.4,130.1v.3c0,0,0,.1.3.1s.3-.2.3-.6,0-.3-.3-.3h-.1v.4ZM665.9,118.9h0c0,.1.4.6.4.6h.1c.2,0,.3-.3.3-.9-.6,0-.9,0-.9.3ZM666.9,118.5h-.1c0,.1,0,0,0,0h.1ZM666.9,121.2c0,.2,0,.3.1.3.4,0,.6-.1.6-.4s-.1-.4-.4-.4-.3.2-.3.6ZM668.1,118.8h.1c0,.2.1.3.1.4s0,.1,0,.1,0,0,0,.1c0,.3.2.4.6.4,0,0,0-.2-.1-.3v-.3c-.1,0,0-.1,0-.1v-.4l-.3-.3c-.2,0-.3,0-.3.3ZM669.1,124.6c.2,0,.3.1.3.4-.2,0-.3-.1-.3-.4ZM669.9,122.9c0,.3,0,.5.3.6.2,0,.5-.2.9-.6-.2-.2-.3-.4-.3-.6h-.1c-.5,0-.7.2-.7.6Z"/>
          </g>
        </g>
      </g>
    </g>
  </g>
</svg>